<?xml version="1.0" standalone="no"?>
<!DOCTYPE svg PUBLIC "-//W3C//DTD SVG 1.1//EN" "http://www.w3.org/Graphics/SVG/1.1/DTD/svg11.dtd" >
<svg xmlns="http://www.w3.org/2000/svg" xmlns:xlink="http://www.w3.org/1999/xlink" version="1.1">
<metadata>
Created by FontForge 20190801 at Mon Aug 11 15:09:13 2008
 By Jimmy Wärting
[c] Copyright 2006, The Font Bureau, Inc. All Rights Reserved.
</metadata>
<defs>
<font id="BentonModDisp-Light" horiz-adv-x="500" >
  <font-face 
    font-family="BentonModDisp LT"
    font-weight="300"
    font-stretch="normal"
    units-per-em="1000"
    panose-1="2 0 6 6 8 0 0 2 0 3"
    ascent="780"
    descent="-220"
    x-height="414"
    cap-height="684"
    bbox="-79 -217 904 881.054"
    underline-thickness="20"
    underline-position="-133"
    stemh="13"
    stemv="47"
    unicode-range="U+0020-FB06"
  />
<missing-glyph 
 />
    <glyph glyph-name="fi" unicode="fi" horiz-adv-x="481" 
d="M142 401v-334c0 -45 9 -57 53 -57h20v-10h-183v10h10c44 0 53 12 53 57v334h-63v13h63v43c0 128 44 241 179 241c81 0 124 -40 124 -72c0 -24 -16 -41 -38 -41c-25 0 -39 15 -39 37c0 10 6 21 10 26c8 10 5 19 -4 25c-10 7 -29 14 -61 14c-101 0 -124 -93 -124 -192v-81
h136l123 8v-355c0 -48 10 -57 54 -57h10v-10h-174v10h10c44 0 54 10 54 57v275c0 52 -10 59 -54 59h-159z" />
    <glyph glyph-name="fl" unicode="fl" horiz-adv-x="478" 
d="M355 401h-213v-334c0 -45 9 -57 53 -57h20v-10h-183v10h10c44 0 53 12 53 57v334h-63v13h63v51c0 105 36 233 180 233c31 0 59 -8 79 -16l47 15v-626c0 -47 8 -61 49 -61h15v-10h-174v10h13c42 0 51 14 51 61v330zM321 622c0 11 5 20 10 26c8 10 5 19 -4 25
c-10 7 -29 14 -61 14c-95 0 -124 -82 -124 -196v-77h213v171c-19 3 -34 14 -34 37z" />
    <glyph glyph-name="f_f_l" unicode="ffl" horiz-adv-x="738" 
d="M614 682l47 15v-626c0 -47 8 -61 49 -61h15v-10h-174v10h13c42 0 51 14 51 61v330h-213v-334c0 -45 9 -57 53 -57h20v-10h-184v10h11c44 0 53 11 53 57v334h-213v-334c0 -45 9 -57 53 -57h34v-10h-197v10h10c44 0 53 12 53 57v334h-63v13h63v50c0 118 47 229 179 229
c64 0 104 -21 126 -59c34 46 80 64 134 64c31 0 60 -8 80 -16zM402 491v-77h213v171c-19 3 -34 14 -34 37c0 11 5 20 10 26c8 10 5 19 -4 25c-10 7 -29 14 -61 14c-95 0 -124 -82 -124 -196zM142 490v-76h213v61c0 31 9 83 18 107c-32 -9 -52 10 -52 36c0 8 4 19 9 25
c8 10 6 19 -3 25c-10 7 -29 14 -61 14c-100 0 -124 -93 -124 -192z" />
    <glyph glyph-name="f_f_i" unicode="ffi" horiz-adv-x="741" 
d="M658 626c0 -24 -16 -41 -39 -41c-25 0 -37 14 -37 37c0 9 7 23 10 27c8 10 4 18 -5 24c-10 7 -29 14 -61 14c-101 0 -124 -93 -124 -192v-81h136l123 8v-355c0 -48 10 -57 54 -57h10v-10h-174v10h10c44 0 54 10 54 57v275c0 52 -10 59 -54 59h-159v-334
c0 -45 9 -57 53 -57h20v-10h-184v10h11c44 0 53 11 53 57v334h-213v-334c0 -45 9 -57 53 -57h34v-10h-197v10h10c44 0 53 12 53 57v334h-63v13h63v50c0 118 47 229 179 229c64 0 104 -22 126 -60c36 49 78 65 134 65c81 0 124 -40 124 -72zM142 490v-76h213v61
c0 31 9 83 18 107c-32 -9 -52 10 -52 36c0 10 5 20 10 26c8 10 5 18 -4 24c-10 7 -29 14 -61 14c-100 0 -124 -93 -124 -192z" />
    <glyph glyph-name="f_f" unicode="ff" horiz-adv-x="523" 
d="M291 0v10h11c44 0 53 11 53 57v334h-213v-334c0 -45 9 -57 53 -57h34v-10h-197v10h10c44 0 53 12 53 57v334h-63v13h63v50c0 118 47 229 179 229c64 0 101 -26 120 -57c25 35 59 62 111 62c55 0 82 -30 82 -65c0 -21 -17 -39 -38 -39c-24 0 -35 19 -35 34c0 13 4 19 7 25
c3 5 8 12 8 19c0 11 -15 17 -31 17c-78 0 -96 -86 -96 -186v-89h105v-13h-105v-336c0 -45 10 -55 54 -55h19v-10h-184zM142 490v-76h213v72c0 31 5 70 14 95c-28 -5 -48 11 -48 37c0 8 4 19 9 25c8 10 6 19 -3 25c-10 7 -29 14 -61 14c-100 0 -124 -93 -124 -192z" />
    <glyph glyph-name="f_j" unicode="fj" horiz-adv-x="470" 
d="M355 -54v396c0 52 -10 59 -54 59h-159v-334c0 -45 9 -57 53 -57h20v-10h-183v10h10c44 0 53 12 53 57v334h-63v13h63v43c0 128 44 241 179 241c81 0 124 -40 124 -72c0 -24 -19 -41 -36 -41c-25 0 -41 14 -41 38c0 11 4 19 9 25c8 10 6 19 -3 25c-10 7 -29 14 -61 14
c-101 0 -124 -93 -124 -192v-81h136l124 8v-460c0 -97 -43 -166 -117 -166c-55 0 -91 29 -91 71c0 23 18 42 42 42c20 0 36 -14 36 -37c0 -10 -4 -19 -10 -25c-8 -8 -16 -13 -16 -20c0 -16 19 -23 38 -23c35 0 71 11 71 142z" />
    <glyph glyph-name=".notdef" 
 />
    <glyph glyph-name="NUL" horiz-adv-x="0" 
 />
    <glyph glyph-name="Eth" unicode="&#xd0;" horiz-adv-x="624" 
d="M106 341h-82v13h82v258c0 49 -16 59 -62 59h-33v13h258c187 0 321 -108 321 -340c0 -237 -149 -344 -329 -344h-250v13h33c46 0 62 11 62 60v268zM159 354h176v-13h-176v-269c0 -49 19 -59 66 -59h39c170 0 264 112 264 327c0 222 -84 331 -259 331h-44
c-47 0 -66 -10 -66 -59v-258z" />
    <glyph glyph-name="eth" unicode="&#xf0;" horiz-adv-x="421" 
d="M212 -13c-97 0 -186 98 -186 221c0 129 92 220 185 220c39 0 82 -13 115 -55c-7 87 -56 175 -86 222l-115 -72l-5 9l115 71c-22 33 -50 66 -81 90l7 7c25 -18 61 -44 96 -83l101 61l5 -9l-99 -60c64 -73 133 -189 132 -366c0 -151 -87 -256 -184 -256zM339 207
c0 113 -36 212 -128 212c-91 0 -127 -97 -127 -210c0 -111 34 -213 128 -213c95 0 127 100 127 211z" />
    <glyph glyph-name="Lslash" unicode="&#x141;" horiz-adv-x="538" 
d="M159 305v-232c0 -52 19 -60 65 -60h50c175 0 187 79 206 242h12l-18 -255h-463v13h33c46 0 62 7 62 60v211l-80 -44v18l80 44v309c0 54 -16 60 -62 60h-33v13h263v-13h-50c-46 0 -65 -7 -65 -60v-288l191 105v-18z" />
    <glyph glyph-name="lslash" unicode="&#x142;" horiz-adv-x="196" 
d="M124 290v-221c0 -47 10 -59 51 -59h13v-10h-174v10h13c42 0 51 12 51 59v195l-71 -39v15l71 39v336c0 47 -9 58 -51 58h-10v10l107 18v-396l72 40v-15z" />
    <glyph glyph-name="Scaron" unicode="&#x160;" horiz-adv-x="522" 
d="M99 53c-16 0 -25 -25 -33 -64h-12l-7 276h14c24 -198 132 -267 254 -267c84 0 149 58 149 152c0 100 -120 142 -197 168s-214 48 -214 199c0 94 71 177 175 177c59 0 89 -16 133 -49c13 -10 23 -21 39 -21s28 17 41 68h12l7 -269h-14c-39 197 -132 262 -218 262
c-90 0 -141 -73 -141 -150c0 -71 34 -119 192 -164c131 -38 211 -82 211 -200c0 -107 -77 -182 -175 -182c-106 0 -139 27 -177 49c-10 6 -25 15 -39 15zM138 873l6 2l108 -103l112 101l5 -3l-98 -143h-36z" />
    <glyph glyph-name="scaron" unicode="&#x161;" horiz-adv-x="379" 
d="M48 162h7c15 -103 82 -162 161 -162c74 0 110 44 110 90c0 48 -38 63 -135 96c-88 30 -138 47 -138 123c0 73 52 114 120 114c57 0 74 -27 106 -27c14 0 29 8 36 25h8v-157h-7c-15 88 -58 149 -148 149c-47 0 -94 -32 -94 -80c0 -47 31 -59 130 -92
c97 -32 143 -56 143 -129s-45 -122 -134 -122c-59 0 -99 36 -120 36c-14 0 -29 -13 -37 -35h-8v171zM75 605l6 2l108 -103l112 101l5 -3l-98 -143h-36z" />
    <glyph glyph-name="Yacute" unicode="&#xdd;" horiz-adv-x="620" 
d="M334 296l135 239c30 53 39 82 39 99c0 28 -26 37 -63 37h-18v13h200v-13c-70 -1 -83 -37 -143 -141l-141 -247v-206c0 -54 17 -64 60 -64h44v-13h-262v13h45c42 0 60 7 60 64v196l-202 336c-21 35 -38 62 -83 62h-9v13h216v-13h-28c-27 0 -49 -6 -49 -28
c0 -7 4 -21 11 -32zM309 719l-4 4l99 123c15 19 29 33 46 34c19 1 30 -12 32 -26s-11 -30 -36 -46z" />
    <glyph glyph-name="yacute" unicode="&#xfd;" horiz-adv-x="427" 
d="M63 -208c-55 0 -78 35 -78 64c0 34 20 50 43 50c21 0 39 -14 39 -35c0 -20 -10 -30 -17 -37c-5 -5 -9 -8 -9 -13c0 -10 12 -13 28 -13c51 0 85 50 118 132l18 44l-141 351c-20 51 -33 66 -74 69v10h170v-10c-42 -2 -54 -16 -54 -31c0 -12 4 -31 13 -53l111 -281l97 254
c8 22 21 54 21 73c0 26 -20 35 -58 38v10h146v-10c-45 -2 -50 -25 -68 -69l-163 -394c-52 -126 -96 -149 -142 -149zM214 466l-4 4l99 123c15 19 29 33 46 34c19 1 30 -12 32 -26s-11 -30 -36 -46z" />
    <glyph glyph-name="Thorn" unicode="&#xde;" horiz-adv-x="512" 
d="M159 611v-68h112c133 0 236 -52 236 -175c0 -131 -118 -186 -249 -186h-99v-109c0 -48 19 -60 65 -60h48v-13h-261v13h33c46 0 62 12 62 60v538c0 48 -16 60 -62 60h-33v13h261v-13h-48c-46 0 -65 -12 -65 -60zM159 195h100c173 0 187 113 187 169c0 69 -12 166 -182 166
h-40c-46 0 -65 -12 -65 -60v-275z" />
    <glyph glyph-name="thorn" unicode="&#xfe;" horiz-adv-x="453" 
d="M110 299h1c22 76 77 125 142 125c97 0 174 -87 174 -217c0 -132 -100 -217 -176 -217c-64 0 -112 38 -139 109h-1s3 -42 3 -124v-112c0 -49 23 -57 54 -57h22v-10h-191v10h15c44 0 54 7 54 57v752c0 47 -9 58 -51 58h-10v10l107 18v-265c0 -37 -4 -137 -4 -137zM371 205
c0 93 -23 210 -118 210c-57 0 -141 -64 -141 -209c0 -117 59 -207 138 -207c95 0 121 116 121 206z" />
    <glyph glyph-name="Zcaron" unicode="&#x17d;" horiz-adv-x="530" 
d="M440 671h-201c-150 0 -164 -70 -180 -222h-13l12 235h440v-12l-421 -659h226c149 0 162 92 187 245h12l-17 -258h-467v11zM154 858l6 2l108 -103l112 101l5 -3l-98 -143h-36z" />
    <glyph glyph-name="zcaron" unicode="&#x17e;" horiz-adv-x="394" 
d="M310 402h-121c-90 0 -111 -36 -137 -143h-8l10 155h308v-8l-283 -394h138c103 0 127 51 147 151h8l-9 -163h-337v9zM86 605l6 2l108 -103l112 101l5 -3l-98 -143h-36z" />
    <glyph glyph-name="onehalf" unicode="&#xbd;" horiz-adv-x="710" 
d="M59 307h19c27 0 39 6 39 33v242c0 27 -12 33 -39 33h-19v9c61 2 85 22 94 39h9v-323c0 -27 11 -33 39 -33h18v-10h-160v10zM152 -6l336 659h17l-338 -659h-15zM413 8c31 64 63 112 120 168c37 37 56 64 56 103c0 44 -21 71 -67 71c-39 0 -76 -22 -77 -57c0 -6 2 -10 9 -9
c23 3 34 -12 34 -28c0 -19 -16 -30 -36 -30c-21 0 -33 17 -33 38c0 55 54 100 109 100c54 0 113 -37 113 -88c0 -50 -29 -76 -81 -115c-54 -40 -100 -73 -122 -122h132c44 0 53 16 61 65h9l-5 -104h-222v8z" />
    <glyph glyph-name="onequarter" unicode="&#xbc;" horiz-adv-x="680" 
d="M59 307h19c27 0 39 6 39 33v242c0 27 -12 33 -39 33h-19v9c61 2 85 22 94 39h9v-323c0 -27 11 -33 39 -33h18v-10h-160v10zM152 -6l336 659h17l-338 -659h-15zM551 103h51v-12h-51v-50c0 -24 10 -31 32 -31h14v-10h-141v10h19c22 0 31 7 31 31v50h-151v8l175 267h21v-263
zM506 103v207l-135 -207h135z" />
    <glyph glyph-name="onesuperior" unicode="&#xb9;" horiz-adv-x="265" 
d="M59 305h19c27 0 39 6 39 33v242c0 27 -12 33 -39 33h-19v9c61 2 85 22 94 39h9v-323c0 -27 11 -33 39 -33h18v-10h-160v10z" />
    <glyph glyph-name="threequarters" unicode="&#xbe;" horiz-adv-x="680" 
d="M68 373c0 22 18 39 37 39c17 0 28 -13 28 -30c0 -21 -21 -28 -36 -22c-8 3 -11 2 -11 -4c2 -28 37 -54 79 -54c45 0 70 27 70 89s-24 87 -77 87c-4 0 -17 -2 -21 -2c-6 0 -12 1 -12 7c0 5 3 7 13 7c3 0 17 -3 20 -3c49 0 70 34 70 89c0 45 -11 77 -58 77
c-34 0 -66 -18 -74 -46c-2 -9 0 -13 3 -11c4 3 9 6 15 6c18 -1 23 -15 23 -26c0 -12 -12 -25 -27 -25c-18 0 -32 13 -32 34c0 39 39 78 92 78c62 0 112 -32 112 -87c0 -39 -27 -79 -93 -92v-2c70 -8 100 -39 100 -94c0 -61 -66 -96 -125 -96c-45 0 -96 32 -96 81zM178 -6
l336 659h17l-338 -659h-15zM577 103h51v-12h-51v-50c0 -24 10 -31 32 -31h14v-10h-141v10h19c22 0 31 7 31 31v50h-151v8l175 267h21v-263zM532 103v207l-135 -207h135z" />
    <glyph glyph-name="threesuperior" unicode="&#xb3;" horiz-adv-x="318" 
d="M48 373c0 22 18 39 37 39c17 0 28 -13 28 -30c0 -21 -21 -28 -36 -22c-8 3 -11 2 -11 -4c2 -28 37 -54 79 -54c45 0 70 27 70 89s-24 87 -77 87c-4 0 -17 -2 -21 -2c-6 0 -12 1 -12 7c0 5 3 7 13 7c3 0 17 -3 20 -3c49 0 70 34 70 89c0 45 -11 77 -58 77
c-34 0 -66 -18 -74 -46c-2 -9 0 -13 3 -11c4 3 9 6 15 6c18 -1 23 -15 23 -26c0 -12 -12 -25 -27 -25c-18 0 -32 13 -32 34c0 39 39 78 92 78c62 0 112 -32 112 -87c0 -39 -27 -79 -93 -92v-2c70 -8 100 -39 100 -94c0 -61 -66 -96 -125 -96c-45 0 -96 32 -96 81z" />
    <glyph glyph-name="twosuperior" unicode="&#xb2;" horiz-adv-x="322" 
d="M41 308c31 64 63 112 120 168c37 37 56 64 56 103c0 44 -21 71 -67 71c-39 0 -76 -22 -77 -57c0 -6 2 -10 9 -9c23 3 34 -12 34 -28c0 -19 -14 -30 -34 -30c-21 0 -35 17 -35 38c0 55 54 100 109 100c54 0 113 -37 113 -88c0 -50 -29 -76 -81 -115
c-54 -40 -100 -73 -122 -122h132c44 0 53 16 61 65h9l-5 -104h-222v8z" />
    <glyph glyph-name="brokenbar" unicode="&#xa6;" horiz-adv-x="239" 
d="M113 318v371h13v-371h-13zM113 167h13v-371h-13v371z" />
    <glyph glyph-name="minus" unicode="&#x2212;" horiz-adv-x="490" 
d="M63 335v13h364v-13h-364z" />
    <glyph glyph-name="multiply" unicode="&#xd7;" horiz-adv-x="490" 
d="M58 143l178 179l-181 180l9 9l181 -181l181 181l8 -9l-180 -180l178 -179l-9 -9l-178 179l-179 -179z" />
    <glyph glyph-name="space" unicode=" " horiz-adv-x="252" 
 />
    <glyph glyph-name="exclam" unicode="!" horiz-adv-x="249" 
d="M95 548c-6 39 -9 68 -9 85c0 39 10 64 39 64c28 0 40 -26 40 -64c0 -17 -4 -46 -10 -85c-11 -70 -25 -215 -25 -365h-10c0 150 -14 293 -25 365zM171 35c0 -27 -19 -46 -46 -46c-26 0 -45 19 -45 46c0 26 19 45 45 45c27 0 46 -19 46 -45z" />
    <glyph glyph-name="quotedbl" unicode="&#x22;" horiz-adv-x="352" 
d="M250 410l-29 195c-4 30 -12 79 33 79c44 0 37 -50 33 -79l-30 -195h-7zM94 410l-29 195c-4 30 -12 79 33 79c44 0 37 -50 33 -79l-30 -195h-7z" />
    <glyph glyph-name="numbersign" unicode="#" horiz-adv-x="649" 
d="M231 411h-152l15 52h150l51 189h10l-50 -189h212l51 189h10l-50 -189h140l-13 -52h-140l-47 -175h151l-15 -52h-150l-51 -191h-10l50 191h-212l-51 -191h-10l50 191h-139l13 52h141zM454 411h-212l-47 -175h213z" />
    <glyph glyph-name="dollar" unicode="$" horiz-adv-x="431" 
d="M212 647v74h9v-74c92 -4 160 -35 160 -117c0 -32 -21 -57 -51 -57c-27 0 -49 19 -49 48c0 26 20 48 49 48c25 0 34 -13 27 7c-11 30 -63 59 -136 59v-273c153 -68 180 -118 180 -204c0 -90 -79 -157 -180 -159v-134h-9v134c-99 -3 -197 51 -197 143c0 27 19 65 61 65
c30 0 49 -23 49 -49c0 -29 -21 -47 -48 -47c-21 0 -47 16 -33 -19c20 -49 106 -82 168 -81v291c-67 28 -167 62 -167 191c0 71 55 151 167 154zM212 635c-95 -1 -136 -71 -136 -124c0 -88 72 -120 136 -146v270zM221 11c112 3 151 76 151 131c0 68 -42 112 -151 157v-288z
" />
    <glyph glyph-name="percent" unicode="%" horiz-adv-x="589" 
d="M157 371c-61 0 -124 61 -124 143c0 79 64 142 124 142c62 0 125 -57 125 -142c0 -82 -64 -143 -125 -143zM118 -6l336 659h17l-338 -659h-15zM432 -8c-61 0 -124 61 -124 143c0 79 64 142 124 142c62 0 125 -57 125 -142c0 -82 -64 -143 -125 -143zM157 379
c50 0 74 63 74 135s-22 134 -73 134c-49 0 -75 -67 -75 -134c0 -75 25 -135 74 -135zM432 0c50 0 74 63 74 135s-22 134 -73 134c-49 0 -75 -67 -75 -134c0 -75 25 -135 74 -135z" />
    <glyph glyph-name="ampersand" unicode="&#x26;" horiz-adv-x="652" 
d="M420 102c43 57 74 139 74 215c0 60 -29 71 -87 72v11h230v-12c-74 -3 -93 -15 -113 -87c-10 -35 -39 -132 -98 -208c43 -68 71 -83 104 -83c49 0 93 38 94 129h10c1 -94 -48 -147 -117 -147c-48 0 -93 16 -126 65c-40 -40 -87 -67 -158 -67c-94 0 -164 75 -164 177
c0 91 46 161 162 232c-17 56 -23 100 -23 121c0 110 61 174 135 174c54 0 93 -34 93 -92c0 -49 -25 -111 -166 -193c11 -29 29 -74 49 -117c36 -75 56 -117 101 -190zM266 418c124 72 143 135 143 186c0 38 -18 80 -69 80c-62 0 -101 -66 -101 -131c0 -38 13 -95 27 -135z
M235 389c-97 -57 -126 -114 -126 -192c0 -112 67 -179 146 -179c49 0 97 15 129 48c-30 44 -62 109 -97 187c-24 54 -41 103 -52 136z" />
    <glyph glyph-name="quotesingle" unicode="'" horiz-adv-x="196" 
d="M94 410l-29 195c-4 30 -12 79 33 79c44 0 37 -50 33 -79l-30 -195h-7z" />
    <glyph glyph-name="parenleft" unicode="(" horiz-adv-x="304" 
d="M50 277c0 169 69 318 200 420v-13c-95 -100 -153 -228 -153 -407c0 -180 43 -293 153 -407v-13c-131 102 -200 250 -200 420z" />
    <glyph glyph-name="parenright" unicode=")" horiz-adv-x="304" 
d="M250 277c0 -170 -70 -318 -200 -420v13c109 114 153 227 153 407c0 179 -59 307 -153 407v13c130 -102 200 -251 200 -420z" />
    <glyph glyph-name="asterisk" unicode="*" horiz-adv-x="459" 
d="M359 566c25 9 42 13 46 -1c3 -10 -4 -17 -32 -26s-109 -23 -138 -33c18 -24 70 -80 87 -102c16 -20 27 -38 15 -46c-9 -6 -21 5 -36 27c-16 23 -54 92 -72 116c-18 -24 -56 -93 -72 -116c-15 -22 -27 -33 -36 -27c-12 8 -1 26 15 46c17 22 69 78 87 102
c-29 10 -110 24 -138 33s-36 16 -32 26c5 13 21 10 46 1c26 -9 97 -44 126 -52c0 30 -12 108 -12 136c0 31 6 43 16 43s16 -11 16 -43c0 -28 -12 -106 -12 -136c30 8 100 43 126 52z" />
    <glyph glyph-name="plus" unicode="+" horiz-adv-x="490" 
d="M239 128v207h-186v13h186v207h12v-207h185v-13h-185v-207h-12z" />
    <glyph glyph-name="comma" unicode="," horiz-adv-x="185" 
d="M33 -167c78 64 100 120 100 147c0 30 -15 9 -38 9c-27 0 -46 17 -46 44s19 47 47 47c26 0 54 -20 53 -87c-1 -51 -34 -108 -109 -169z" />
    <glyph glyph-name="hyphen" unicode="-" horiz-adv-x="279" 
d="M24 247h231v-37h-231v37z" />
    <glyph glyph-name="hyphen" unicode="&#xad;" horiz-adv-x="279" 
d="M24 247h231v-37h-231v37z" />
    <glyph glyph-name="period" unicode="." horiz-adv-x="189" 
d="M140 35c0 -27 -19 -46 -46 -46c-26 0 -45 19 -45 46c0 26 19 45 45 45c27 0 46 -19 46 -45z" />
    <glyph glyph-name="slash" unicode="/" horiz-adv-x="357" 
d="M313 689h15l-307 -774h-13z" />
    <glyph glyph-name="zero" unicode="0" horiz-adv-x="502" 
d="M44 324c0 190 92 339 209 339c114 0 205 -146 205 -339s-95 -337 -208 -337c-115 0 -206 144 -206 337zM396 324c0 227 -61 330 -146 330c-88 0 -144 -106 -144 -330c0 -226 61 -328 147 -328c87 0 143 106 143 328z" />
    <glyph glyph-name="one" unicode="1" horiz-adv-x="302" 
d="M38 13h40c43 0 60 9 60 57v454c0 49 -17 57 -60 57h-39v13c109 8 133 40 144 73h8v-597c0 -47 15 -57 59 -57h31v-13h-243v13z" />
    <glyph glyph-name="two" unicode="2" horiz-adv-x="422" 
d="M55 50h219c91 0 98 33 111 121h9l-9 -171h-352v24c32 93 86 183 179 282c76 81 110 127 110 207c0 102 -47 140 -108 140c-70 0 -131 -51 -144 -123c-3 -15 2 -28 11 -21c11 9 22 12 32 12c26 0 44 -22 44 -47s-19 -50 -51 -50c-31 0 -56 26 -56 73c0 94 75 166 164 166
c73 0 169 -32 169 -149s-95 -176 -155 -230c-69 -62 -131 -130 -173 -234z" />
    <glyph glyph-name="three" unicode="3" horiz-adv-x="428" 
d="M220 334c108 -17 181 -71 181 -171c0 -97 -88 -175 -196 -175c-82 0 -164 59 -164 148c0 40 24 67 59 67c30 0 51 -21 51 -51c0 -38 -38 -52 -67 -40c-14 6 -20 4 -20 -7c0 -48 67 -107 142 -107c83 0 133 57 133 171c0 112 -43 157 -139 157c-7 0 -31 -4 -38 -4
c-12 0 -23 2 -23 13c0 10 7 13 25 13c5 0 31 -5 36 -5c88 0 127 61 127 161c0 82 -29 149 -115 149c-64 0 -120 -42 -134 -93c-4 -15 0 -23 5 -19c8 6 17 10 27 10c33 -1 44 -25 43 -46c-1 -22 -19 -44 -46 -44c-32 0 -52 28 -52 59c0 72 61 143 158 143
c93 0 176 -59 176 -159c0 -71 -49 -147 -169 -170z" />
    <glyph glyph-name="four" unicode="4" horiz-adv-x="460" 
d="M342 182h91v-17h-91v-96c0 -44 17 -56 57 -56h26v-13h-227v13h34c40 0 57 12 57 56v96h-269v14l300 486h22v-483zM289 182v405l-249 -405h249z" />
    <glyph glyph-name="five" unicode="5" horiz-adv-x="442" 
d="M41 133c0 43 28 68 61 68c28 0 47 -17 47 -46c0 -33 -27 -60 -75 -45c-9 3 -11 -3 -10 -11c8 -52 63 -101 141 -101c116 0 145 87 145 199c0 110 -41 182 -134 182c-40 0 -86 -19 -99 -35c0 -40 -13 -55 -25 -51c-8 3 -10 13 -7 24s10 23 18 31l11 304l9 4
c59 -19 108 -25 159 -25c41 0 78 8 104 25l5 -7c-47 -58 -111 -82 -179 -82c-30 0 -62 2 -85 6l-11 -213c25 20 67 33 111 33c95 0 184 -61 184 -192c0 -130 -96 -213 -207 -213c-93 0 -163 61 -163 145z" />
    <glyph glyph-name="six" unicode="6" horiz-adv-x="433" 
d="M44 292c0 199 86 371 229 371c82 0 117 -52 117 -96c0 -39 -27 -58 -52 -58c-32 0 -46 22 -46 43c0 22 13 34 24 39c18 8 30 3 30 17c0 28 -37 46 -73 46c-130 0 -176 -175 -170 -366c37 79 94 103 141 103c124 0 165 -100 165 -188c0 -135 -83 -216 -179 -216
c-118 0 -186 115 -186 305zM349 198c0 156 -68 181 -111 181c-67 0 -136 -75 -136 -188c0 -95 40 -195 129 -195c94 0 118 107 118 202z" />
    <glyph glyph-name="seven" unicode="7" horiz-adv-x="450" 
d="M171 68c0 125 95 358 218 522h-214c-91 0 -114 -1 -134 -152h-10l18 209h367v-39c-126 -187 -182 -331 -182 -447c0 -49 14 -91 14 -119c0 -36 -10 -56 -34 -56c-26 0 -43 30 -43 82z" />
    <glyph glyph-name="eight" unicode="8" horiz-adv-x="446" 
d="M24 140c0 84 60 142 152 192c-81 42 -124 91 -124 174c0 97 91 157 182 157c81 0 175 -42 175 -136c0 -75 -70 -130 -133 -173c97 -49 147 -105 145 -198c-2 -110 -105 -169 -200 -169c-79 0 -197 40 -197 153zM264 362c74 50 109 111 109 159c0 103 -71 129 -142 129
c-90 0 -150 -64 -150 -125c0 -70 54 -97 129 -138c17 -9 38 -17 54 -25zM187 326c-93 -57 -124 -107 -123 -191c1 -102 92 -135 158 -135c74 0 169 47 172 141c2 59 -38 111 -155 161c-20 9 -38 16 -52 24z" />
    <glyph glyph-name="nine" unicode="9" horiz-adv-x="453" 
d="M407 358c0 -199 -86 -371 -229 -371c-82 0 -117 52 -117 96c0 39 27 58 52 58c34 0 46 -22 46 -43c0 -24 -13 -34 -23 -39c-22 -11 -32 -1 -31 -17c2 -29 37 -46 73 -46c130 0 176 175 170 366c-37 -79 -94 -103 -141 -103c-124 0 -165 100 -165 188
c0 135 83 216 179 216c118 0 186 -115 186 -305zM102 452c0 -156 68 -181 111 -181c67 0 136 75 136 188c0 95 -40 195 -129 195c-94 0 -118 -107 -118 -202z" />
    <glyph glyph-name="colon" unicode=":" horiz-adv-x="189" 
d="M140 383c0 -27 -19 -46 -46 -46c-26 0 -45 19 -45 46c0 26 19 45 45 45c27 0 46 -19 46 -45zM140 35c0 -27 -19 -46 -46 -46c-26 0 -45 19 -45 46c0 26 19 45 45 45c27 0 46 -19 46 -45z" />
    <glyph glyph-name="semicolon" unicode=";" horiz-adv-x="189" 
d="M140 383c0 -27 -19 -46 -46 -46c-26 0 -45 19 -45 46c0 26 19 45 45 45c27 0 46 -19 46 -45zM33 -167c78 64 100 120 100 147c0 30 -15 9 -38 9c-27 0 -46 17 -46 44s19 47 47 47c26 0 54 -20 53 -87c-1 -51 -34 -108 -109 -169z" />
    <glyph glyph-name="less" unicode="&#x3c;" horiz-adv-x="490" 
d="M73 321l362 -172v-14l-381 180v10l381 180v-13z" />
    <glyph glyph-name="equal" unicode="=" horiz-adv-x="490" 
d="M63 409v13h364v-13h-364zM63 230v13h364v-13h-364z" />
    <glyph glyph-name="greater" unicode="&#x3e;" horiz-adv-x="490" 
d="M416 321l-362 171v13l381 -180v-10l-381 -180v14z" />
    <glyph glyph-name="question" unicode="?" horiz-adv-x="393" 
d="M182 210c0 70 2 85 81 217c30 49 35 93 35 121c0 90 -32 136 -104 136c-50 0 -110 -33 -121 -81c-2 -9 1 -8 7 -6c33 11 68 -7 68 -47c0 -23 -18 -49 -47 -49c-31 0 -55 25 -55 62c0 70 65 130 148 130c84 0 157 -48 157 -153c0 -64 -35 -106 -66 -146
c-63 -81 -92 -116 -92 -187v-18h-11v21zM233 35c0 -27 -19 -46 -46 -46c-26 0 -45 19 -45 46c0 26 19 45 45 45c27 0 46 -19 46 -45z" />
    <glyph glyph-name="at" unicode="@" horiz-adv-x="844" 
d="M439 -154c-199 0 -393 115 -393 381c0 249 199 423 412 423c183 0 340 -113 340 -313c0 -164 -100 -283 -223 -283c-45 0 -92 35 -74 111h-4c-35 -64 -76 -111 -148 -111c-59 0 -108 44 -108 134c0 120 97 261 204 261c61 0 88 -44 96 -92h3l22 87h46l-72 -283
c-17 -66 2 -92 47 -92c97 0 194 119 194 269c0 189 -143 299 -332 299c-177 0 -386 -160 -386 -408c0 -256 186 -367 378 -367c114 0 205 41 280 100l7 -12c-76 -59 -164 -104 -289 -104zM372 78c80 0 148 124 148 249c0 75 -23 111 -77 111c-95 0 -148 -161 -148 -241
c0 -79 25 -119 77 -119z" />
    <glyph glyph-name="A" unicode="A" horiz-adv-x="624" 
d="M434 221h-282l-17 -52c-14 -44 -25 -76 -25 -104c0 -36 21 -52 57 -52h20v-13h-189v13c54 3 75 41 102 118l204 566h14l218 -613c21 -60 49 -70 90 -71v-13h-231v13h28c39 0 63 16 63 36c0 18 -9 48 -23 88zM430 234l-137 389l-137 -389h274z" />
    <glyph glyph-name="B" unicode="B" horiz-adv-x="565" 
d="M11 13h33c46 0 62 10 62 60v536c0 51 -14 62 -62 62h-33v13h256c147 0 235 -53 235 -160c0 -89 -61 -145 -169 -167v-4c135 -21 194 -76 194 -177c0 -99 -99 -176 -250 -176h-266v13zM262 358c106 0 180 52 180 161c0 102 -69 152 -191 152h-28c-46 0 -65 -9 -65 -58
v-255h104zM225 13h53c142 0 188 73 188 160c0 98 -61 172 -200 172h-108v-274c0 -50 20 -58 67 -58z" />
    <glyph glyph-name="C" unicode="C" horiz-adv-x="574" 
d="M35 338c0 235 134 356 261 356c56 0 106 -25 146 -52c11 -7 21 -14 30 -14c14 0 24 19 35 68h10l8 -266h-13c-31 177 -123 255 -215 255c-128 0 -200 -124 -200 -343c0 -193 63 -341 208 -341c118 0 195 94 218 249h15c-24 -169 -107 -263 -234 -263
c-138 0 -269 129 -269 351z" />
    <glyph glyph-name="D" unicode="D" horiz-adv-x="624" 
d="M11 13h33c46 0 62 11 62 60v539c0 49 -16 59 -62 59h-33v13h258c187 0 321 -108 321 -340c0 -237 -149 -344 -329 -344h-250v13zM225 13h39c170 0 264 112 264 327c0 222 -84 331 -259 331h-44c-47 0 -66 -10 -66 -59v-540c0 -49 19 -59 66 -59z" />
    <glyph glyph-name="E" unicode="E" horiz-adv-x="580" 
d="M11 13h33c46 0 62 10 62 61v536c0 52 -16 61 -62 61h-33v13h487l10 -240h-10c-14 179 -32 227 -192 227h-82c-46 0 -65 -9 -65 -60v-249h74c97 0 112 61 113 142h10v-306h-10c-1 83 -15 151 -113 151h-74v-276c0 -50 19 -60 65 -60h94c153 0 185 78 197 248h11l-17 -261
h-498v13z" />
    <glyph glyph-name="F" unicode="F" horiz-adv-x="534" 
d="M11 13h33c46 0 62 9 62 60v538c0 51 -16 60 -62 60h-33v13h476l8 -238h-10c-11 183 -44 225 -183 225h-78c-46 0 -65 -7 -65 -60v-256h61c96 0 106 50 111 141h11v-303h-11c-6 84 -16 149 -111 149h-61v-269c0 -51 19 -60 65 -60h48v-13h-261v13z" />
    <glyph glyph-name="G" unicode="G" horiz-adv-x="600" 
d="M305 0c100 0 159 78 159 137v84c0 54 -11 61 -58 61h-36v13h218v-13h-7c-48 0 -67 -12 -67 -61v-231h-7c-13 40 -29 54 -44 54c-14 0 -24 -7 -38 -16c-34 -21 -72 -37 -120 -37c-144 0 -270 137 -270 351c0 230 134 352 261 352c56 0 106 -25 146 -52
c11 -7 21 -14 30 -14c14 0 24 19 35 68h10l8 -266h-13c-31 177 -123 255 -215 255c-128 0 -200 -126 -200 -339c0 -210 73 -346 208 -346z" />
    <glyph glyph-name="H" unicode="H" horiz-adv-x="649" 
d="M11 0v13h33c46 0 62 9 62 60v538c0 51 -16 60 -62 60h-33v13h244v-13h-31c-46 0 -65 -9 -65 -60v-257h331v257c0 52 -19 60 -64 60h-32v13h244v-13h-33c-46 0 -62 -8 -62 -60v-538c0 -51 16 -60 62 -60h33v-13h-244v13h32c45 0 64 9 64 60v268h-331v-268
c0 -51 19 -60 65 -60h31v-13h-244z" />
    <glyph glyph-name="I" unicode="I" horiz-adv-x="281" 
d="M14 13h37c46 0 62 8 62 60v538c0 51 -16 60 -62 60h-37v13h253v-13h-36c-45 0 -64 -9 -64 -60v-538c0 -51 19 -60 64 -60h36v-13h-253v13z" />
    <glyph glyph-name="J" unicode="J" horiz-adv-x="418" 
d="M15 105c0 49 28 78 61 78c26 0 47 -18 47 -46c0 -27 -20 -46 -48 -46c-37 0 -41 33 -41 -3c0 -48 45 -92 115 -92c96 0 111 79 111 180v436c0 51 -16 59 -62 59h-44v13h256v-13h-32c-46 0 -64 -8 -64 -59v-410c0 -146 -71 -215 -166 -215c-86 0 -133 47 -133 118z" />
    <glyph glyph-name="K" unicode="K" horiz-adv-x="626" 
d="M293 401l231 -326c27 -38 45 -62 93 -62h16v-13h-234v13h26c31 0 49 6 49 25c0 12 -7 25 -15 36l-202 287l-98 -109v-179c0 -50 18 -60 64 -60h30v-13h-242v13h33c46 0 62 8 62 60v538c0 52 -16 60 -62 60h-33v13h242v-13h-30c-46 0 -64 -9 -64 -60v-341l217 242
c66 73 81 101 81 123c0 36 -32 36 -78 36h-13v13h232v-13c-60 0 -75 -20 -118 -67z" />
    <glyph glyph-name="L" unicode="L" horiz-adv-x="538" 
d="M11 13h33c46 0 62 7 62 60v538c0 54 -16 60 -62 60h-33v13h263v-13h-50c-46 0 -65 -7 -65 -60v-538c0 -52 19 -60 65 -60h50c175 0 189 83 206 242h12l-18 -255h-463v13z" />
    <glyph glyph-name="M" unicode="M" horiz-adv-x="764" 
d="M386 74l218 610h150v-13h-32c-46 0 -64 -9 -64 -60v-537c0 -51 19 -61 64 -61h32v-13h-241v13h30c45 0 62 9 62 61v561h-2l-232 -648h-8l-239 648h-1v-498c0 -105 20 -124 96 -124h4v-13h-219v13h16c65 0 86 21 86 124v473c0 50 -16 61 -62 61h-34v13h153z" />
    <glyph glyph-name="N" unicode="N" horiz-adv-x="643" 
d="M123 602v-470c0 -99 24 -119 100 -119h4v-13h-219v13h10c66 0 88 19 88 119v490c-35 40 -51 49 -102 49v13h126l395 -605v472c0 96 -23 120 -99 120h-4v13h218v-13h-8c-66 0 -89 -28 -89 -120v-567h-16z" />
    <glyph glyph-name="O" unicode="O" horiz-adv-x="607" 
d="M35 340c0 205 117 357 269 357c149 0 268 -153 268 -353s-116 -357 -270 -357c-150 0 -267 150 -267 353zM510 340c0 181 -56 348 -208 348c-151 0 -205 -163 -205 -344s56 -348 207 -348c152 0 206 163 206 344z" />
    <glyph glyph-name="P" unicode="P" horiz-adv-x="512" 
d="M11 13h33c46 0 62 12 62 60v538c0 48 -16 60 -62 60h-33v13h260c133 0 236 -52 236 -175c0 -131 -118 -186 -249 -186h-99v-250c0 -48 19 -60 65 -60h48v-13h-261v13zM258 336c175 0 188 113 188 169c0 69 -12 166 -182 166h-40c-46 0 -65 -11 -65 -59v-276h99z" />
    <glyph glyph-name="Q" unicode="Q" horiz-adv-x="607" 
d="M304 697c149 0 268 -156 268 -353c0 -133 -48 -235 -128 -307c15 -178 48 -177 75 -177c25 0 56 30 57 142h11c0 -110 -17 -184 -86 -184c-65 0 -90 53 -93 196c-24 -14 -69 -27 -106 -27c-148 0 -267 150 -267 353c0 205 117 357 269 357zM281 -6l1 3
c-62 16 -87 61 -87 111c0 58 44 108 104 108c94 0 133 -81 141 -151c43 62 70 152 70 275c0 181 -56 348 -208 348c-151 0 -205 -163 -205 -344c-1 -200 67 -330 184 -350zM408 30c9 145 -63 173 -108 173c-55 0 -91 -43 -91 -95c0 -66 47 -108 111 -108c30 0 66 13 88 30z
" />
    <glyph glyph-name="R" unicode="R" horiz-adv-x="605" 
d="M507 514c0 -92 -57 -154 -175 -181v-2c45 -17 76 -45 108 -140c42 -125 50 -150 83 -150c26 0 46 28 43 114h13c12 -116 -32 -164 -78 -164c-56 0 -81 34 -97 154c-24 178 -58 181 -149 181h-96v-251c0 -47 16 -62 62 -62h45v-13h-255v13h33c50 0 62 15 62 62v536
c0 47 -15 60 -62 60h-33v13h249c147 0 247 -58 247 -170zM159 339h131c129 0 156 102 156 173c0 58 -12 159 -182 159h-40c-46 0 -65 -10 -65 -58v-274z" />
    <glyph glyph-name="S" unicode="S" horiz-adv-x="522" 
d="M99 53c-16 0 -25 -25 -33 -64h-12l-7 276h14c24 -198 132 -267 254 -267c84 0 149 58 149 152c0 100 -120 142 -197 168s-214 48 -214 199c0 94 71 177 175 177c59 0 89 -16 133 -49c13 -10 23 -21 39 -21s28 17 41 68h12l7 -269h-14c-39 197 -132 262 -218 262
c-90 0 -141 -73 -141 -150c0 -71 34 -119 192 -164c131 -38 211 -82 211 -200c0 -107 -77 -182 -175 -182c-106 0 -139 27 -177 49c-10 6 -25 15 -39 15z" />
    <glyph glyph-name="T" unicode="T" horiz-adv-x="594" 
d="M160 13h48c44 0 63 7 63 60v598h-66c-142 0 -152 -82 -167 -248h-10l14 261h514l11 -261h-10c-11 164 -25 248 -167 248h-66v-598c0 -52 17 -60 63 -60h46v-13h-273v13z" />
    <glyph glyph-name="U" unicode="U" horiz-adv-x="666" 
d="M99 221v389c0 48 -14 61 -62 61h-34v13h241v-13h-27c-47 0 -65 -11 -65 -61v-413c0 -108 54 -189 193 -189c125 0 194 91 194 201v335c0 94 -20 127 -101 127h-3v13h224v-13h-15c-68 0 -87 -35 -87 -127v-331c0 -124 -70 -223 -231 -223c-170 0 -227 94 -227 231z" />
    <glyph glyph-name="V" unicode="V" horiz-adv-x="653" 
d="M348 59l172 477c13 37 22 69 22 93c0 34 -38 42 -67 42h-29v13h201v-13c-53 -3 -62 -9 -95 -99l-216 -585h-17l-224 613c-19 53 -36 71 -89 71v13h240v-13h-38c-38 0 -57 -12 -60 -36c-2 -18 5 -44 14 -67z" />
    <glyph glyph-name="W" unicode="W" horiz-adv-x="908" 
d="M442 504l-24 87c-18 66 -44 78 -95 80v13h226v-13h-33c-41 0 -51 -17 -51 -37c0 -18 3 -34 12 -65l148 -496l154 455c13 37 21 73 21 97c0 29 -25 46 -60 46h-21v13h185v-13c-56 -10 -69 -32 -93 -101l-200 -583h-13l-148 492l-159 -492h-14l-179 596
c-21 70 -30 86 -94 88v13h211v-13h-13c-38 0 -56 -13 -57 -35c-1 -18 2 -35 12 -68l148 -493z" />
    <glyph glyph-name="X" unicode="X" horiz-adv-x="609" 
d="M320 386l106 171c23 37 35 64 36 82c1 28 -19 32 -51 32h-32v13h205v-13c-64 -3 -65 -3 -128 -100l-128 -197l187 -297c27 -43 36 -64 78 -64h6v-13h-214v13h28c28 0 52 8 52 27c0 7 -5 22 -12 33l-158 258l-129 -206c-26 -42 -37 -67 -37 -80c0 -24 18 -32 60 -32h22
v-13h-210v13c66 5 86 21 136 98l150 232l-166 266c-27 44 -35 62 -79 62h-8v13h212v-13h-24c-33 0 -51 -6 -52 -25c0 -7 6 -24 13 -35z" />
    <glyph glyph-name="Y" unicode="Y" horiz-adv-x="620" 
d="M334 296l135 239c30 53 39 82 39 99c0 28 -26 37 -63 37h-18v13h200v-13c-70 -1 -83 -37 -143 -141l-141 -247v-206c0 -54 17 -64 60 -64h44v-13h-262v13h45c42 0 60 7 60 64v196l-202 336c-21 35 -38 62 -83 62h-9v13h216v-13h-28c-27 0 -49 -6 -49 -28
c0 -7 4 -21 11 -32z" />
    <glyph glyph-name="Z" unicode="Z" horiz-adv-x="530" 
d="M440 671h-201c-150 0 -164 -70 -180 -222h-13l12 235h440v-12l-421 -659h226c149 0 162 92 187 245h12l-17 -258h-467v11z" />
    <glyph glyph-name="bracketleft" unicode="[" horiz-adv-x="295" 
d="M70 -130v814h183v-13h-140v-788h140v-13h-183z" />
    <glyph glyph-name="backslash" unicode="\" horiz-adv-x="357" 
d="M44 689l305 -774h-13l-307 774h15z" />
    <glyph glyph-name="bracketright" unicode="]" horiz-adv-x="295" 
d="M42 -130v13h139v788h-139v13h183v-814h-183z" />
    <glyph glyph-name="asciicircum" unicode="^" horiz-adv-x="459" 
d="M75 408l-11 4l151 275h29l151 -275l-11 -4l-155 219z" />
    <glyph glyph-name="underscore" unicode="_" horiz-adv-x="403" 
d="M-2 -106v11h406v-11h-406z" />
    <glyph glyph-name="grave" unicode="`" 
d="M313 466l-137 89c-25 16 -37 32 -36 46c1 15 13 28 32 27c17 -1 31 -16 46 -35l99 -123z" />
    <glyph glyph-name="a" unicode="a" horiz-adv-x="409" 
d="M30 87c0 93 81 142 259 175v30c0 96 -47 123 -104 123c-54 0 -100 -24 -101 -41c0 -3 2 -3 5 -4c17 -4 31 -17 31 -39s-17 -38 -37 -38c-19 0 -37 14 -37 41c0 46 54 92 152 92c66 0 138 -22 138 -141v-205c0 -51 10 -64 27 -64c28 0 33 39 33 88h11
c5 -84 -24 -110 -59 -110c-31 0 -57 19 -59 93h-2c-22 -51 -69 -94 -146 -94c-64 0 -111 30 -111 94zM289 175v75c-173 -31 -204 -87 -204 -147c0 -57 27 -91 83 -91c39 0 121 32 121 163z" />
    <glyph glyph-name="b" unicode="b" horiz-adv-x="447" 
d="M246 -10c-70 0 -108 41 -134 97h-3l-56 -106h-5c9 59 14 129 14 191v446c0 46 -6 57 -54 57h-24v8c63 4 124 17 124 17v-277c0 -25 -4 -124 -4 -124h2c22 76 78 125 148 125c95 0 167 -92 167 -215c0 -115 -74 -219 -175 -219zM365 205c0 93 -23 206 -115 206
c-60 0 -144 -60 -144 -205c0 -117 59 -205 140 -205c93 0 119 114 119 204z" />
    <glyph glyph-name="c" unicode="c" horiz-adv-x="378" 
d="M26 204c0 133 87 224 197 224c89 0 128 -57 128 -111c0 -25 -20 -48 -45 -48s-41 20 -41 43c0 21 15 41 38 41c9 0 18 1 18 6c0 24 -36 60 -99 60c-100 0 -138 -89 -138 -209c0 -122 46 -203 138 -203c56 0 92 29 125 78l7 -5c-28 -54 -77 -93 -144 -93
c-105 0 -184 83 -184 217z" />
    <glyph glyph-name="d" unicode="d" horiz-adv-x="457" 
d="M343 110h-3c-23 -67 -69 -120 -138 -120c-96 0 -176 88 -176 215c0 122 86 219 181 219c56 0 107 -37 135 -110h4c-2 24 0 98 0 148v156c0 47 -11 57 -55 57h-26v9l127 16v-630c0 -49 3 -55 35 -57l27 -2v-9c-39 -4 -114 -15 -114 -15zM82 205c0 -112 36 -204 122 -204
c83 0 139 104 139 204c0 168 -91 209 -137 209c-88 0 -124 -105 -124 -209z" />
    <glyph glyph-name="e" unicode="e" horiz-adv-x="397" 
d="M26 204c0 135 87 224 182 224c69 0 160 -52 160 -182c0 -1 -1 -26 -2 -31h-283c0 -104 35 -208 136 -208c71 0 112 39 138 86l8 -6c-27 -53 -73 -100 -155 -100c-105 0 -184 82 -184 217zM83 228h179c44 0 51 7 51 40c0 80 -34 151 -106 151c-79 0 -120 -83 -124 -191z
" />
    <glyph glyph-name="f" unicode="f" horiz-adv-x="263" 
d="M32 10h10c44 0 53 10 53 55v336h-63v13h63v67c0 126 57 217 150 217c55 0 82 -30 82 -65c0 -21 -17 -39 -37 -39c-36 0 -45 36 -29 59c4 6 8 12 8 19c0 11 -15 16 -31 16c-75 0 -96 -85 -96 -185v-89h105v-13h-105v-336c0 -45 10 -55 54 -55h19v-10h-183v10z" />
    <glyph glyph-name="g" unicode="g" horiz-adv-x="448" 
d="M128 137c-29 -12 -48 -33 -48 -54s27 -37 131 -38c73 -1 207 -7 207 -116c0 -82 -102 -135 -212 -135c-106 0 -191 31 -189 106c2 56 79 105 154 107c-57 1 -118 15 -118 59c0 31 27 57 67 77c-42 27 -73 75 -73 129c0 92 68 156 161 156c51 0 87 -14 123 -54
c14 25 32 49 64 49c30 0 51 -19 51 -46c0 -18 -12 -37 -34 -37c-20 0 -31 14 -32 33c-1 17 -1 27 -10 27c-11 0 -20 -11 -32 -33c23 -34 30 -63 30 -95c0 -89 -70 -156 -161 -156c-26 0 -55 7 -79 21zM313 272c0 44 -15 147 -105 147c-87 0 -105 -96 -105 -147
c0 -62 22 -147 105 -147c82 0 105 86 105 147zM212 2c-126 0 -154 -63 -154 -105c0 -74 82 -91 154 -91c101 0 189 49 189 109c0 52 -58 87 -189 87z" />
    <glyph glyph-name="h" unicode="h" horiz-adv-x="452" 
d="M114 284h2c32 95 92 138 157 138c77 0 118 -46 118 -146v-210c0 -49 13 -56 48 -56h8v-10h-173v10h14c45 0 56 8 56 56v241c0 74 -39 93 -80 93c-78 0 -144 -83 -144 -170v-164c0 -48 11 -56 55 -56h13v-10h-178v10h9c42 0 54 6 54 56v548c0 50 -10 59 -54 59h-12v10
l112 18v-311c0 -41 -5 -106 -5 -106z" />
    <glyph glyph-name="i" unicode="i" horiz-adv-x="201" 
d="M51 594c0 24 19 43 43 43c23 0 43 -19 43 -43s-20 -43 -43 -43c-24 0 -43 19 -43 43zM18 10h10c44 0 54 8 54 55v282c0 51 -10 58 -54 58h-10v9l111 7v-356c0 -48 10 -55 54 -55h10v-10h-175v10z" />
    <glyph glyph-name="j" unicode="j" horiz-adv-x="197" 
d="M51 594c0 24 19 43 43 43c23 0 43 -19 43 -43s-20 -43 -43 -43c-24 0 -43 19 -43 43zM-79 -133c0 23 18 42 42 42c20 0 36 -14 36 -37c0 -10 -4 -19 -10 -25c-8 -8 -16 -13 -16 -20c0 -16 19 -23 38 -23c35 0 71 11 71 142v401c0 51 -6 58 -50 58h-23v9l120 7v-459
c0 -97 -43 -166 -117 -166c-55 0 -91 29 -91 71z" />
    <glyph glyph-name="k" unicode="k" horiz-adv-x="445" 
d="M226 256l153 -198c23 -30 33 -47 70 -48v-10h-165v10c41 0 54 8 54 18c0 8 -7 19 -17 32l-126 164l-76 -78v-81c0 -48 12 -55 57 -55h7v-10h-169v10h5c44 0 54 7 54 55v551c0 48 -10 57 -54 57h-12v10l112 18v-538l157 167c22 23 28 34 28 48c0 17 -19 25 -54 26v10h178
v-10c-59 -3 -71 -19 -110 -57z" />
    <glyph glyph-name="l" unicode="l" horiz-adv-x="196" 
d="M14 10h13c42 0 51 12 51 59v546c0 47 -9 58 -51 58h-10v10l107 18v-632c0 -47 10 -59 51 -59h13v-10h-174v10z" />
    <glyph glyph-name="m" unicode="m" horiz-adv-x="712" 
d="M388 227v-161c0 -45 12 -56 57 -56h12v-10h-185v10h14c45 0 55 11 55 56v241c0 74 -33 93 -75 93c-77 0 -141 -84 -141 -173v-161c0 -45 10 -56 54 -56h14v-10h-178v10h11c44 0 52 11 52 56v281c0 46 -7 58 -51 58h-12v9l109 7l-5 -137h2c31 98 97 138 154 138
c84 0 109 -55 113 -125c34 87 93 125 150 125c77 0 113 -46 113 -146v-210c0 -45 11 -56 56 -56h2v-10h-173v10h14c45 0 54 11 54 56v241c0 74 -35 93 -76 93c-78 0 -140 -87 -140 -173z" />
    <glyph glyph-name="n" unicode="n" horiz-adv-x="457" 
d="M396 276v-210c0 -49 13 -56 48 -56h8v-10h-173v10h14c45 0 56 8 56 56v241c0 74 -41 93 -82 93c-79 0 -142 -86 -142 -170v-164c0 -48 11 -56 55 -56h13v-10h-178v10h9c44 0 54 7 54 56v281c0 51 -10 58 -54 58h-9v9l109 7l-5 -137h2c30 95 92 138 157 138
c77 0 118 -46 118 -146z" />
    <glyph glyph-name="o" unicode="o" horiz-adv-x="421" 
d="M26 208c0 129 92 220 185 220c95 0 184 -89 184 -218c0 -123 -86 -223 -183 -223s-186 98 -186 221zM339 207c0 113 -36 212 -128 212c-91 0 -127 -97 -127 -210c0 -111 34 -213 128 -213c95 0 127 100 127 211z" />
    <glyph glyph-name="p" unicode="p" horiz-adv-x="453" 
d="M427 207c0 -108 -78 -217 -176 -217c-77 0 -117 55 -136 109h-3l2 -124v-112c0 -49 23 -57 54 -57h22v-10h-191v10h15c44 0 54 7 54 57v485c0 51 -10 57 -54 57h-9v9l109 7l-4 -126h1c23 76 78 129 143 129c108 0 173 -95 173 -217zM371 205c0 93 -23 207 -118 207
c-57 0 -141 -61 -141 -206c0 -133 66 -205 138 -205c95 0 121 114 121 204z" />
    <glyph glyph-name="q" unicode="q" horiz-adv-x="439" 
d="M26 204c0 138 97 220 175 220c58 0 109 -43 137 -108h3l59 115l5 -1c-14 -53 -20 -127 -20 -185v-382c0 -47 10 -57 54 -57h13v-10h-194v10h26c37 0 55 11 55 57v128c0 57 1 112 1 112h-3c-22 -58 -62 -113 -135 -113c-88 0 -176 81 -176 214zM82 205
c0 -112 36 -204 122 -204c83 0 137 101 137 204c0 156 -91 206 -137 206c-88 0 -122 -102 -122 -206z" />
    <glyph glyph-name="r" unicode="r" horiz-adv-x="339" 
d="M15 10h9c44 0 54 6 54 56v281c0 50 -10 58 -54 58h-9v9l109 7l-7 -179h1c30 119 85 184 149 184c55 0 79 -35 79 -64c0 -34 -20 -50 -43 -50c-21 0 -38 15 -38 36c0 20 8 29 15 36c5 5 10 8 10 13c0 10 -13 14 -29 14c-80 0 -136 -150 -136 -213v-132
c0 -48 10 -56 54 -56h23v-10h-187v10z" />
    <glyph glyph-name="s" unicode="s" horiz-adv-x="379" 
d="M48 162h7c15 -103 82 -162 161 -162c74 0 110 44 110 90c0 48 -38 63 -135 96c-88 30 -138 47 -138 123c0 73 52 114 120 114c57 0 74 -27 106 -27c14 0 29 8 36 25h8v-157h-7c-15 88 -58 149 -148 149c-47 0 -94 -32 -94 -80c0 -47 31 -59 130 -92
c97 -32 143 -56 143 -129s-45 -122 -134 -122c-59 0 -99 36 -120 36c-14 0 -29 -13 -37 -35h-8v171z" />
    <glyph glyph-name="t" unicode="t" horiz-adv-x="293" 
d="M78 113v288h-68v12c63 10 101 52 105 188h10v-187h142v-13h-142v-299c0 -68 20 -101 73 -100c51 1 85 58 85 141h13c0 -92 -41 -156 -105 -156c-72 0 -113 41 -113 126z" />
    <glyph glyph-name="u" unicode="u" horiz-adv-x="457" 
d="M386 420v-348c0 -49 11 -59 55 -59h9v-8l-110 -15l5 128h-2c-29 -77 -87 -128 -155 -128c-74 0 -120 39 -120 135v223c0 48 -10 57 -54 57h-11v9l112 6v-315c0 -66 31 -93 85 -93c71 0 139 78 139 162v172c0 51 -10 59 -54 59h-28v9z" />
    <glyph glyph-name="v" unicode="v" horiz-adv-x="423" 
d="M227 59l95 238c10 25 20 49 20 69c0 26 -14 36 -57 38v10h144v-10c-46 -3 -54 -26 -70 -65l-143 -352h-10l-139 352c-20 50 -31 64 -72 65v10h172v-10c-40 -1 -56 -13 -56 -29c0 -15 7 -37 12 -49z" />
    <glyph glyph-name="w" unicode="w" horiz-adv-x="606" 
d="M310 266l-29 83c-11 31 -19 53 -62 55v10h161v-10c-40 -2 -57 -12 -57 -28c0 -13 7 -32 14 -54l87 -260l87 234c10 26 17 50 17 69c0 29 -18 38 -58 39v10h143v-10c-39 -2 -50 -25 -66 -67l-135 -350h-9l-86 257l-108 -257h-9l-134 350c-18 47 -29 66 -73 67v10h170v-10
c-42 -2 -57 -12 -57 -28c0 -13 4 -32 12 -52l103 -268z" />
    <glyph glyph-name="x" unicode="x" horiz-adv-x="443" 
d="M217 191l-88 -117c-16 -21 -22 -32 -21 -41c1 -13 21 -23 71 -24v-9h-169v9c42 2 52 5 104 72l95 122l-123 162c-22 28 -29 36 -69 39v10h168v-10c-43 -2 -51 -9 -51 -21c0 -8 4 -16 15 -31l86 -117l77 101c10 13 24 31 23 45c-1 16 -24 21 -67 23v10h160v-10
c-43 -3 -56 -19 -101 -75l-84 -104l136 -177c22 -28 29 -36 59 -39v-9h-158v9c38 2 48 6 50 18c1 7 -3 16 -15 33z" />
    <glyph glyph-name="y" unicode="y" horiz-adv-x="427" 
d="M63 -208c-55 0 -78 35 -78 64c0 34 20 50 43 50c21 0 39 -14 39 -35c0 -20 -10 -30 -17 -37c-5 -5 -9 -8 -9 -13c0 -10 12 -13 28 -13c51 0 85 50 118 132l18 44l-141 351c-20 51 -33 66 -74 69v10h170v-10c-42 -2 -54 -16 -54 -31c0 -12 4 -31 13 -53l111 -281l97 254
c8 22 21 54 21 73c0 26 -20 35 -58 38v10h146v-10c-45 -2 -50 -25 -68 -69l-163 -394c-52 -126 -96 -149 -142 -149z" />
    <glyph glyph-name="z" unicode="z" horiz-adv-x="394" 
d="M310 402h-121c-90 0 -111 -36 -137 -143h-8l10 155h308v-8l-283 -394h138c103 0 127 51 147 151h8l-9 -163h-337v9z" />
    <glyph glyph-name="braceleft" unicode="{" horiz-adv-x="390" 
d="M335 -130c-99 0 -191 33 -191 142c0 39 18 86 18 118c0 78 -41 144 -131 140v13c90 -3 131 63 131 141c0 32 -18 79 -18 118c0 109 92 142 191 142h13v-13c-104 0 -155 -48 -155 -116c0 -46 15 -85 15 -125c0 -105 -46 -136 -138 -151v-4c92 -9 138 -53 138 -152
c0 -40 -15 -78 -15 -124c0 -66 50 -116 155 -116v-13h-13z" />
    <glyph glyph-name="bar" unicode="|" horiz-adv-x="237" 
d="M112 -204v893h13v-893h-13z" />
    <glyph glyph-name="braceright" unicode="}" horiz-adv-x="390" 
d="M56 -130h-14v13c105 0 155 50 155 116c0 46 -15 84 -15 124c0 99 47 143 139 152v4c-93 15 -139 46 -139 151c0 40 15 79 15 125c0 68 -51 116 -155 116v13h14c98 0 190 -33 190 -142c0 -39 -17 -86 -17 -118c0 -78 40 -144 131 -141v-13c-91 4 -131 -62 -131 -140
c0 -32 17 -79 17 -118c0 -109 -92 -142 -190 -142z" />
    <glyph glyph-name="asciitilde" unicode="~" horiz-adv-x="331" 
d="M41 171l-4 2c11 57 33 87 84 87c40 0 79 -18 111 -18c29 0 45 2 61 43l5 -2c-12 -64 -38 -87 -84 -87c-39 0 -81 19 -111 19s-46 -4 -62 -44z" />
    <glyph glyph-name="Adieresis" unicode="&#xc4;" horiz-adv-x="624" 
d="M434 221h-282l-17 -52c-14 -44 -25 -76 -25 -104c0 -36 21 -52 57 -52h20v-13h-189v13c54 3 75 41 102 118l204 566h14l218 -613c21 -60 49 -70 90 -71v-13h-231v13h28c39 0 63 16 63 36c0 18 -9 48 -23 88zM430 234l-137 389l-137 -389h274zM352 783c0 24 19 43 43 43
c23 0 43 -19 43 -43s-20 -43 -43 -43c-24 0 -43 19 -43 43zM181 783c0 24 19 43 43 43c23 0 43 -19 43 -43s-20 -43 -43 -43c-24 0 -43 19 -43 43z" />
    <glyph glyph-name="Aring" unicode="&#xc5;" horiz-adv-x="624" 
d="M322 687l214 -603c21 -60 49 -70 90 -71v-13h-231v13h28c39 0 63 16 63 36c0 18 -8 44 -23 88l-29 84h-282l-17 -52c-14 -44 -25 -76 -25 -104c0 -36 21 -52 57 -52h20v-13h-189v13c54 3 75 41 102 118l200 556c-41 5 -72 41 -72 84c0 47 37 85 84 85c48 0 84 -39 84 -85
c0 -44 -32 -80 -74 -84zM312 841c-36 0 -60 -30 -60 -70c0 -38 25 -70 60 -70c38 0 60 32 60 70c0 40 -23 70 -60 70zM430 234l-137 389l-137 -389h274z" />
    <glyph glyph-name="Ccedilla" unicode="&#xc7;" horiz-adv-x="574" 
d="M274 -10c-126 17 -239 142 -239 348c0 235 134 356 261 356c56 0 106 -25 146 -52c11 -7 21 -14 30 -14c14 0 24 19 35 68h10l8 -266h-13c-31 177 -123 255 -215 255c-128 0 -200 -124 -200 -343c0 -193 63 -341 208 -341c118 0 195 94 218 249h15
c-24 -169 -107 -263 -234 -263c-5 0 -10 0 -15 1v-60c3 1 14 4 31 4c42 0 75 -23 75 -66c0 -56 -39 -83 -90 -83c-42 0 -77 14 -114 38l8 12c20 -15 52 -30 86 -30c33 0 60 20 60 56c0 34 -18 59 -48 59c-7 0 -17 -2 -23 -3v75z" />
    <glyph glyph-name="Eacute" unicode="&#xc9;" horiz-adv-x="580" 
d="M11 13h33c46 0 62 10 62 61v536c0 52 -16 61 -62 61h-33v13h487l10 -240h-10c-14 179 -32 227 -192 227h-82c-46 0 -65 -9 -65 -60v-249h74c97 0 112 61 113 142h10v-306h-10c-1 83 -15 151 -113 151h-74v-276c0 -50 19 -60 65 -60h94c153 0 185 78 197 248h11l-17 -261
h-498v13zM243 719l-4 4l99 123c15 19 29 33 46 34c19 1 30 -12 32 -26s-11 -30 -36 -46z" />
    <glyph glyph-name="Ntilde" unicode="&#xd1;" horiz-adv-x="643" 
d="M123 602v-470c0 -99 24 -119 100 -119h4v-13h-219v13h10c66 0 88 19 88 119v490c-35 40 -51 49 -102 49v13h126l395 -605v472c0 96 -23 120 -99 120h-4v13h218v-13h-8c-66 0 -89 -28 -89 -120v-567h-16zM297 811c39 -1 87 -22 118 -24c23 -1 33 7 46 41l8 -2
c-16 -59 -41 -88 -91 -86c-39 1 -87 23 -118 25c-23 1 -35 -9 -47 -40l-8 2c15 60 41 85 92 84z" />
    <glyph glyph-name="Odieresis" unicode="&#xd6;" horiz-adv-x="607" 
d="M35 340c0 205 117 357 269 357c149 0 268 -153 268 -353s-116 -357 -270 -357c-150 0 -267 150 -267 353zM510 340c0 181 -56 348 -208 348c-151 0 -205 -163 -205 -344s56 -348 207 -348c152 0 206 163 206 344zM348 783c0 24 19 43 43 43c23 0 43 -19 43 -43
s-20 -43 -43 -43c-24 0 -43 19 -43 43zM177 783c0 24 19 43 43 43c23 0 43 -19 43 -43s-20 -43 -43 -43c-24 0 -43 19 -43 43z" />
    <glyph glyph-name="Udieresis" unicode="&#xdc;" horiz-adv-x="666" 
d="M99 221v389c0 48 -14 61 -62 61h-34v13h241v-13h-27c-47 0 -65 -11 -65 -61v-413c0 -108 54 -189 193 -189c125 0 194 91 194 201v335c0 94 -20 127 -101 127h-3v13h224v-13h-15c-68 0 -87 -35 -87 -127v-331c0 -124 -70 -223 -231 -223c-170 0 -227 94 -227 231z
M391 783c0 24 19 43 43 43c23 0 43 -19 43 -43s-20 -43 -43 -43c-24 0 -43 19 -43 43zM220 783c0 24 19 43 43 43c23 0 43 -19 43 -43s-20 -43 -43 -43c-24 0 -43 19 -43 43z" />
    <glyph glyph-name="aacute" unicode="&#xe1;" horiz-adv-x="409" 
d="M30 87c0 93 81 142 259 175v30c0 96 -47 123 -104 123c-54 0 -100 -24 -101 -41c0 -3 2 -3 5 -4c17 -4 31 -17 31 -39s-17 -38 -37 -38c-19 0 -37 14 -37 41c0 46 54 92 152 92c66 0 138 -22 138 -141v-205c0 -51 10 -64 27 -64c28 0 33 39 33 88h11
c5 -84 -24 -110 -59 -110c-31 0 -57 19 -59 93h-2c-22 -51 -69 -94 -146 -94c-64 0 -111 30 -111 94zM289 175v75c-173 -31 -204 -87 -204 -147c0 -57 27 -91 83 -91c39 0 121 32 121 163zM160 466l-4 4l99 123c15 19 29 33 46 34c19 1 30 -12 32 -26s-11 -30 -36 -46z" />
    <glyph glyph-name="agrave" unicode="&#xe0;" horiz-adv-x="409" 
d="M30 87c0 93 81 142 259 175v30c0 96 -47 123 -104 123c-54 0 -100 -24 -101 -41c0 -3 2 -3 5 -4c17 -4 31 -17 31 -39s-17 -38 -37 -38c-19 0 -37 14 -37 41c0 46 54 92 152 92c66 0 138 -22 138 -141v-205c0 -51 10 -64 27 -64c28 0 33 39 33 88h11
c5 -84 -24 -110 -59 -110c-31 0 -57 19 -59 93h-2c-22 -51 -69 -94 -146 -94c-64 0 -111 30 -111 94zM289 175v75c-173 -31 -204 -87 -204 -147c0 -57 27 -91 83 -91c39 0 121 32 121 163zM259 466l-137 89c-25 16 -37 32 -36 46c1 15 13 28 32 27c17 -1 31 -16 46 -35
l99 -123z" />
    <glyph glyph-name="acircumflex" unicode="&#xe2;" horiz-adv-x="409" 
d="M30 87c0 93 81 142 259 175v30c0 96 -47 123 -104 123c-54 0 -100 -24 -101 -41c0 -3 2 -3 5 -4c17 -4 31 -17 31 -39s-17 -38 -37 -38c-19 0 -37 14 -37 41c0 46 54 92 152 92c66 0 138 -22 138 -141v-205c0 -51 10 -64 27 -64c28 0 33 39 33 88h11
c5 -84 -24 -110 -59 -110c-31 0 -57 19 -59 93h-2c-22 -51 -69 -94 -146 -94c-64 0 -111 30 -111 94zM289 175v75c-173 -31 -204 -87 -204 -147c0 -57 27 -91 83 -91c39 0 121 32 121 163zM80 470l97 146h36l98 -143l-5 -3l-112 91l-108 -93z" />
    <glyph glyph-name="adieresis" unicode="&#xe4;" horiz-adv-x="409" 
d="M30 87c0 93 81 142 259 175v30c0 96 -47 123 -104 123c-54 0 -100 -24 -101 -41c0 -3 2 -3 5 -4c17 -4 31 -17 31 -39s-17 -38 -37 -38c-19 0 -37 14 -37 41c0 46 54 92 152 92c66 0 138 -22 138 -141v-205c0 -51 10 -64 27 -64c28 0 33 39 33 88h11
c5 -84 -24 -110 -59 -110c-31 0 -57 19 -59 93h-2c-22 -51 -69 -94 -146 -94c-64 0 -111 30 -111 94zM289 175v75c-173 -31 -204 -87 -204 -147c0 -57 27 -91 83 -91c39 0 121 32 121 163zM235 530c0 24 19 43 43 43c23 0 43 -19 43 -43s-20 -43 -43 -43
c-24 0 -43 19 -43 43zM64 530c0 24 19 43 43 43c23 0 43 -19 43 -43s-20 -43 -43 -43c-24 0 -43 19 -43 43z" />
    <glyph glyph-name="atilde" unicode="&#xe3;" horiz-adv-x="409" 
d="M30 87c0 93 81 142 259 175v30c0 96 -47 123 -104 123c-54 0 -100 -24 -101 -41c0 -3 2 -3 5 -4c17 -4 31 -17 31 -39s-17 -38 -37 -38c-19 0 -37 14 -37 41c0 46 54 92 152 92c66 0 138 -22 138 -141v-205c0 -51 10 -64 27 -64c28 0 33 39 33 88h11
c5 -84 -24 -110 -59 -110c-31 0 -57 19 -59 93h-2c-22 -51 -69 -94 -146 -94c-64 0 -111 30 -111 94zM289 175v75c-173 -31 -204 -87 -204 -147c0 -57 27 -91 83 -91c39 0 121 32 121 163zM153 557c39 -1 87 -22 118 -24c23 -1 33 7 46 41l8 -2c-16 -59 -41 -88 -91 -86
c-39 1 -87 23 -118 25c-23 1 -35 -9 -47 -40l-8 2c15 60 41 85 92 84z" />
    <glyph glyph-name="aring" unicode="&#xe5;" horiz-adv-x="409" 
d="M30 87c0 93 81 142 259 175v30c0 96 -47 123 -104 123c-54 0 -100 -24 -101 -41c0 -3 2 -3 5 -4c17 -4 31 -17 31 -39s-17 -38 -37 -38c-19 0 -37 14 -37 41c0 46 54 92 152 92c66 0 138 -22 138 -141v-205c0 -51 10 -64 27 -64c28 0 33 39 33 88h11
c5 -84 -24 -110 -59 -110c-31 0 -57 19 -59 93h-2c-22 -51 -69 -94 -146 -94c-64 0 -111 30 -111 94zM289 175v75c-173 -31 -204 -87 -204 -147c0 -57 27 -91 83 -91c39 0 121 32 121 163zM192 649c48 0 84 -39 84 -85c0 -47 -37 -85 -84 -85s-84 38 -84 85s37 85 84 85z
M192 634c-36 0 -60 -30 -60 -70c0 -38 25 -70 60 -70c38 0 60 32 60 70c0 40 -23 70 -60 70z" />
    <glyph glyph-name="ccedilla" unicode="&#xe7;" horiz-adv-x="378" 
d="M181 -10c-90 13 -155 93 -155 214c0 133 87 224 197 224c81 0 128 -57 128 -111c0 -25 -20 -48 -45 -48s-41 20 -41 43c0 21 15 40 38 41c9 0 14 -4 14 3c0 27 -25 63 -95 63c-100 0 -138 -89 -138 -209c0 -122 46 -203 138 -203c56 0 104 29 135 68l7 -5
c-31 -49 -87 -83 -154 -83c-5 0 -9 0 -14 1v-60c3 1 14 4 31 4c42 0 75 -25 75 -68c0 -56 -39 -81 -90 -81c-42 0 -78 13 -114 38l8 12c20 -15 52 -30 86 -30c33 0 60 20 60 56c0 34 -18 59 -48 59c-7 0 -17 -1 -23 -3v75z" />
    <glyph glyph-name="eacute" unicode="&#xe9;" horiz-adv-x="397" 
d="M26 204c0 135 87 224 182 224c69 0 160 -52 160 -182c0 -1 -1 -26 -2 -31h-283c0 -104 35 -208 136 -208c71 0 112 39 138 86l8 -6c-27 -53 -73 -100 -155 -100c-105 0 -184 82 -184 217zM83 228h179c44 0 51 7 51 40c0 80 -34 151 -106 151c-79 0 -120 -83 -124 -191z
M172 466l-4 4l99 123c15 19 29 33 46 34c19 1 30 -12 32 -26s-11 -30 -36 -46z" />
    <glyph glyph-name="egrave" unicode="&#xe8;" horiz-adv-x="397" 
d="M26 204c0 135 87 224 182 224c69 0 160 -52 160 -182c0 -1 -1 -26 -2 -31h-283c0 -104 35 -208 136 -208c71 0 112 39 138 86l8 -6c-27 -53 -73 -100 -155 -100c-105 0 -184 82 -184 217zM83 228h179c44 0 51 7 51 40c0 80 -34 151 -106 151c-79 0 -120 -83 -124 -191z
M261 466l-137 89c-25 16 -37 32 -36 46c1 15 13 28 32 27c17 -1 31 -16 46 -35l99 -123z" />
    <glyph glyph-name="ecircumflex" unicode="&#xea;" horiz-adv-x="397" 
d="M26 204c0 135 87 224 182 224c69 0 160 -52 160 -182c0 -1 -1 -26 -2 -31h-283c0 -104 35 -208 136 -208c71 0 112 39 138 86l8 -6c-27 -53 -73 -100 -155 -100c-105 0 -184 82 -184 217zM83 228h179c44 0 51 7 51 40c0 80 -34 151 -106 151c-79 0 -120 -83 -124 -191z
M94 470l97 146h36l98 -143l-5 -3l-112 91l-108 -93z" />
    <glyph glyph-name="edieresis" unicode="&#xeb;" horiz-adv-x="397" 
d="M26 204c0 135 87 224 182 224c69 0 160 -52 160 -182c0 -1 -1 -26 -2 -31h-283c0 -104 35 -208 136 -208c71 0 112 39 138 86l8 -6c-27 -53 -73 -100 -155 -100c-105 0 -184 82 -184 217zM83 228h179c44 0 51 7 51 40c0 80 -34 151 -106 151c-79 0 -120 -83 -124 -191z
M245 530c0 24 19 43 43 43c23 0 43 -19 43 -43s-20 -43 -43 -43c-24 0 -43 19 -43 43zM74 530c0 24 19 43 43 43c23 0 43 -19 43 -43s-20 -43 -43 -43c-24 0 -43 19 -43 43z" />
    <glyph glyph-name="iacute" unicode="&#xed;" horiz-adv-x="201" 
d="M18 10h10c44 0 54 8 54 55v283c0 51 -10 58 -54 58h-10v8l111 7v-356c0 -48 10 -55 54 -55h10v-10h-175v10zM44 466l-4 4l99 123c15 19 29 33 46 34c19 1 30 -12 32 -26s-11 -30 -36 -46z" />
    <glyph glyph-name="igrave" unicode="&#xec;" horiz-adv-x="201" 
d="M18 10h10c44 0 54 8 54 55v283c0 51 -10 58 -54 58h-10v8l111 7v-356c0 -48 10 -55 54 -55h10v-10h-175v10zM129 466l-137 89c-25 16 -37 32 -36 46c1 15 13 28 32 27c17 -1 31 -16 46 -35l99 -123z" />
    <glyph glyph-name="icircumflex" unicode="&#xee;" horiz-adv-x="201" 
d="M18 10h10c44 0 54 8 54 55v283c0 51 -10 58 -54 58h-10v8l111 7v-356c0 -48 10 -55 54 -55h10v-10h-175v10zM-22 470l97 146h36l98 -143l-5 -3l-112 91l-108 -93z" />
    <glyph glyph-name="idieresis" unicode="&#xef;" horiz-adv-x="201" 
d="M18 10h10c44 0 54 8 54 55v283c0 51 -10 58 -54 58h-10v8l111 7v-356c0 -48 10 -55 54 -55h10v-10h-175v10zM133 530c0 24 19 43 43 43c23 0 43 -19 43 -43s-20 -43 -43 -43c-24 0 -43 19 -43 43zM-38 530c0 24 19 43 43 43c23 0 43 -19 43 -43s-20 -43 -43 -43
c-24 0 -43 19 -43 43z" />
    <glyph glyph-name="ntilde" unicode="&#xf1;" horiz-adv-x="457" 
d="M396 276v-210c0 -49 13 -56 48 -56h8v-10h-173v10h14c45 0 56 8 56 56v241c0 74 -41 93 -82 93c-79 0 -142 -86 -142 -170v-164c0 -48 11 -56 55 -56h13v-10h-178v10h9c44 0 54 7 54 56v281c0 51 -10 58 -54 58h-9v9l109 7l-5 -137h2c30 95 92 138 157 138
c77 0 118 -46 118 -146zM202 557c39 -1 87 -22 118 -24c23 -1 33 7 46 41l8 -2c-16 -59 -41 -88 -91 -86c-39 1 -87 23 -118 25c-23 1 -35 -9 -47 -40l-8 2c15 60 41 85 92 84z" />
    <glyph glyph-name="oacute" unicode="&#xf3;" horiz-adv-x="421" 
d="M26 208c0 129 92 220 185 220c95 0 184 -89 184 -218c0 -123 -86 -223 -183 -223s-186 98 -186 221zM339 207c0 113 -36 212 -128 212c-91 0 -127 -97 -127 -210c0 -111 34 -213 128 -213c95 0 127 100 127 211zM175 466l-4 4l99 123c15 19 29 33 46 34
c19 1 30 -12 32 -26s-11 -30 -36 -46z" />
    <glyph glyph-name="ograve" unicode="&#xf2;" horiz-adv-x="421" 
d="M26 208c0 129 92 220 185 220c95 0 184 -89 184 -218c0 -123 -86 -223 -183 -223s-186 98 -186 221zM339 207c0 113 -36 212 -128 212c-91 0 -127 -97 -127 -210c0 -111 34 -213 128 -213c95 0 127 100 127 211zM253 466l-137 89c-25 16 -37 32 -36 46c1 15 13 28 32 27
c17 -1 31 -16 46 -35l99 -123z" />
    <glyph glyph-name="ocircumflex" unicode="&#xf4;" horiz-adv-x="421" 
d="M26 208c0 129 92 220 185 220c95 0 184 -89 184 -218c0 -123 -86 -223 -183 -223s-186 98 -186 221zM339 207c0 113 -36 212 -128 212c-91 0 -127 -97 -127 -210c0 -111 34 -213 128 -213c95 0 127 100 127 211zM98 470l97 146h36l98 -143l-5 -3l-112 91l-108 -93z" />
    <glyph glyph-name="odieresis" unicode="&#xf6;" horiz-adv-x="421" 
d="M26 208c0 129 92 220 185 220c95 0 184 -89 184 -218c0 -123 -86 -223 -183 -223s-186 98 -186 221zM339 207c0 113 -36 212 -128 212c-91 0 -127 -97 -127 -210c0 -111 34 -213 128 -213c95 0 127 100 127 211zM254 530c0 24 19 43 43 43c23 0 43 -19 43 -43
s-20 -43 -43 -43c-24 0 -43 19 -43 43zM83 530c0 24 19 43 43 43c23 0 43 -19 43 -43s-20 -43 -43 -43c-24 0 -43 19 -43 43z" />
    <glyph glyph-name="otilde" unicode="&#xf5;" horiz-adv-x="421" 
d="M26 208c0 129 92 220 185 220c95 0 184 -89 184 -218c0 -123 -86 -223 -183 -223s-186 98 -186 221zM339 207c0 113 -36 212 -128 212c-91 0 -127 -97 -127 -210c0 -111 34 -213 128 -213c95 0 127 100 127 211zM172 557c39 -1 87 -22 118 -24c23 -1 33 7 46 41l8 -2
c-16 -59 -41 -88 -91 -86c-39 1 -87 23 -118 25c-23 1 -35 -9 -47 -40l-8 2c15 60 41 85 92 84z" />
    <glyph glyph-name="uacute" unicode="&#xfa;" horiz-adv-x="457" 
d="M386 420v-348c0 -49 11 -59 55 -59h9v-8l-110 -15l5 128h-2c-29 -77 -87 -128 -155 -128c-74 0 -120 39 -120 135v223c0 48 -10 57 -54 57h-11v9l112 6v-315c0 -66 31 -93 85 -93c71 0 139 78 139 162v172c0 51 -10 59 -54 59h-28v9zM182 466l-4 4l99 123
c15 19 29 33 46 34c19 1 30 -12 32 -26s-11 -30 -36 -46z" />
    <glyph glyph-name="ugrave" unicode="&#xf9;" horiz-adv-x="457" 
d="M386 420v-348c0 -49 11 -59 55 -59h9v-8l-110 -15l5 128h-2c-29 -77 -87 -128 -155 -128c-74 0 -120 39 -120 135v223c0 48 -10 57 -54 57h-11v9l112 6v-315c0 -66 31 -93 85 -93c71 0 139 78 139 162v172c0 51 -10 59 -54 59h-28v9zM273 466l-137 89
c-25 16 -37 32 -36 46c1 15 13 28 32 27c17 -1 31 -16 46 -35l99 -123z" />
    <glyph glyph-name="ucircumflex" unicode="&#xfb;" horiz-adv-x="457" 
d="M386 420v-348c0 -49 11 -59 55 -59h9v-8l-110 -15l5 128h-2c-29 -77 -87 -128 -155 -128c-74 0 -120 39 -120 135v223c0 48 -10 57 -54 57h-11v9l112 6v-315c0 -66 31 -93 85 -93c71 0 139 78 139 162v172c0 51 -10 59 -54 59h-28v9zM101 470l97 146h36l98 -143l-5 -3
l-112 91l-108 -93z" />
    <glyph glyph-name="udieresis" unicode="&#xfc;" horiz-adv-x="457" 
d="M386 420v-348c0 -49 11 -59 55 -59h9v-8l-110 -15l5 128h-2c-29 -77 -87 -128 -155 -128c-74 0 -120 39 -120 135v223c0 48 -10 57 -54 57h-11v9l112 6v-315c0 -66 31 -93 85 -93c71 0 139 78 139 162v172c0 51 -10 59 -54 59h-28v9zM262 530c0 24 19 43 43 43
c23 0 43 -19 43 -43s-20 -43 -43 -43c-24 0 -43 19 -43 43zM91 530c0 24 19 43 43 43c23 0 43 -19 43 -43s-20 -43 -43 -43c-24 0 -43 19 -43 43z" />
    <glyph glyph-name="dagger" unicode="&#x2020;" horiz-adv-x="457" 
d="M225 488c-47 0 -58 -6 -78 -12c-16 -5 -36 -12 -45 -12c-24 0 -36 11 -36 29c0 17 13 27 36 27c9 0 27 -6 44 -11c20 -6 32 -12 79 -12c0 71 -7 104 -14 125c-6 20 -8 31 -8 38c0 15 5 36 26 36c22 0 27 -21 27 -36c0 -8 -2 -18 -9 -38c-7 -19 -13 -53 -13 -125
c47 0 58 6 75 12c23 8 37 11 46 11c21 0 36 -10 36 -27c0 -18 -15 -29 -36 -29c-9 0 -24 5 -46 12c-18 6 -29 12 -75 12c0 -79 8 -123 31 -156c-19 -79 -30 -159 -30 -343h-12c0 185 -11 264 -30 343c23 34 32 77 32 156z" />
    <glyph glyph-name="degree" unicode="&#xb0;" horiz-adv-x="350" 
d="M176 422c-67 0 -120 52 -120 119s52 119 119 119s119 -53 119 -120s-51 -118 -118 -118zM174 433c61 0 108 47 108 108c0 59 -46 109 -107 109c-60 0 -107 -49 -107 -110c0 -59 46 -107 106 -107z" />
    <glyph glyph-name="cent" unicode="&#xa2;" horiz-adv-x="378" 
d="M251 437c56 -14 94 -60 94 -109c0 -33 -20 -51 -46 -51c-25 0 -41 23 -41 42c0 23 13 41 34 45c13 2 19 -2 19 3c0 24 -16 49 -63 61l-99 -390c21 -17 47 -25 77 -25c56 0 93 24 126 64l7 -6c-38 -57 -89 -85 -156 -85c-24 0 -46 4 -64 11l-33 -131h-12l34 136
c-61 33 -106 106 -106 208c0 136 90 231 196 231c6 0 17 -1 21 -2l19 83h12zM237 430c-6 1 -14 2 -22 2c-93 0 -134 -102 -134 -216c0 -69 20 -132 57 -171z" />
    <glyph glyph-name="sterling" unicode="&#xa3;" horiz-adv-x="447" 
d="M161 321h-124v11h120c-30 47 -61 98 -61 157c0 91 75 172 185 172c89 0 140 -57 140 -118c0 -36 -22 -58 -51 -58c-31 0 -44 23 -44 39c0 15 7 42 45 46c20 2 45 -13 29 17c-24 45 -75 64 -121 64c-72 0 -124 -45 -124 -144c0 -57 25 -109 44 -175h180v-11h-177
c11 -35 20 -71 20 -114c0 -41 -13 -81 -28 -117c27 -19 67 -50 109 -50c88 0 117 63 117 163h8c6 -135 -28 -210 -127 -210c-56 0 -96 36 -122 65c-20 -39 -53 -67 -96 -67c-45 0 -80 20 -80 65c0 51 38 78 81 78c42 0 74 -20 103 -39c11 28 16 60 16 87
c0 60 -19 99 -42 139zM173 63c-26 32 -54 60 -90 60c-37 0 -70 -22 -70 -66c0 -39 34 -58 70 -58c41 0 70 29 90 64z" />
    <glyph glyph-name="section" unicode="&#xa7;" horiz-adv-x="504" 
d="M206 202c-84 29 -132 78 -132 135c0 56 47 97 106 113c-40 21 -64 57 -64 102c0 61 60 109 137 109c108 0 134 -58 134 -82c0 -23 -16 -45 -39 -45c-22 0 -39 13 -39 36c0 10 5 26 20 32c14 6 20 1 21 11c1 8 -30 40 -97 40c-53 0 -101 -38 -101 -85
c0 -60 30 -76 136 -120c62 -26 141 -57 141 -138c0 -56 -52 -99 -106 -115c40 -21 65 -51 65 -100c0 -61 -64 -109 -140 -109c-108 0 -142 57 -142 81c0 25 17 47 42 47c23 0 40 -15 40 -38c0 -12 -7 -25 -22 -30c-16 -5 -22 -2 -22 -12c0 -9 38 -40 105 -40
c61 0 103 42 103 89c0 64 -66 91 -146 119zM200 246c39 -19 93 -37 109 -44c49 3 84 53 84 94c0 59 -54 84 -92 103c-31 15 -73 30 -108 44c-51 -7 -82 -53 -82 -94c0 -63 56 -87 89 -103z" />
    <glyph glyph-name="bullet" unicode="&#x2022;" horiz-adv-x="460" 
d="M229 217c-74 0 -131 56 -131 131c0 74 57 132 131 132s132 -58 132 -132c0 -75 -58 -131 -132 -131z" />
    <glyph glyph-name="paragraph" unicode="&#xb6;" horiz-adv-x="542" 
d="M231 333c-94 9 -169 54 -169 162c0 98 71 152 181 152h227v-12h-82v-640h-12v640h-133v-640h-12v338z" />
    <glyph glyph-name="germandbls" unicode="&#xdf;" horiz-adv-x="508" 
d="M222 71c0 30 21 46 45 46c26 0 40 -20 40 -38c0 -12 -3 -23 -12 -32c-8 -8 -18 -11 -18 -19c0 -17 28 -30 74 -30c71 0 111 47 111 100c0 39 -14 71 -102 105c-78 29 -125 56 -125 115c0 38 7 65 37 120c19 35 42 70 42 120c0 93 -33 131 -82 131c-71 0 -90 -80 -90 -182
v-507h-110v10h10c45 0 53 11 53 62v329h-63v13h63v71c0 119 43 212 140 212c92 0 122 -61 122 -132c0 -79 -57 -137 -87 -179c-16 -22 -27 -42 -27 -58c0 -29 49 -36 139 -72c89 -35 99 -109 99 -149c0 -62 -46 -118 -130 -118c-91 0 -129 45 -129 82z" />
    <glyph glyph-name="registered" unicode="&#xae;" horiz-adv-x="467" 
d="M45 512c0 102 83 180 188 180c106 0 189 -78 189 -180s-83 -181 -189 -181c-105 0 -188 79 -188 181zM60 512c0 -96 75 -167 173 -167c99 0 174 71 174 167c0 95 -75 167 -174 167c-98 0 -173 -72 -173 -167zM146 621h87c52 0 86 -16 86 -53c0 -29 -28 -52 -67 -54
c22 -5 35 -34 41 -50c11 -32 16 -36 26 -36c8 0 18 8 17 41h6c4 -45 -17 -58 -34 -58c-22 0 -37 13 -45 58c-3 18 -13 41 -29 41h-27v-75c0 -12 4 -14 17 -14h13v-8h-91v8h12c13 0 19 2 19 14v163c0 11 -6 14 -19 14h-12v9zM207 518h28c33 0 51 15 51 49c0 28 -14 46 -43 46
h-19c-15 0 -17 -3 -17 -15v-80z" />
    <glyph glyph-name="copyright" unicode="&#xa9;" horiz-adv-x="830" 
d="M415 700c210 0 362 -155 362 -358c0 -201 -153 -358 -362 -358c-208 0 -361 158 -361 358c0 201 153 358 361 358zM415 687c-199 0 -344 -155 -344 -345s145 -345 344 -345s345 155 345 345s-146 345 -345 345zM564 553l5 -164h-10c-19 106 -81 155 -150 155
c-86 0 -121 -96 -121 -197c0 -98 43 -199 126 -199c93 0 138 68 156 151h10c-18 -107 -82 -163 -167 -163c-98 0 -179 91 -179 208c0 122 82 209 176 209c37 0 62 -13 90 -30c15 -9 26 -10 31 -10c13 0 20 15 25 40h8z" />
    <glyph glyph-name="trademark" unicode="&#x2122;" horiz-adv-x="789" 
d="M121 381h25c22 0 31 4 31 22v273c-85 0 -111 -30 -117 -114h-6l6 122h271l6 -122h-7c-7 83 -25 114 -118 114v-273c0 -18 11 -22 32 -22h26v-10h-149v10zM747 684v-10h-19c-19 0 -29 -4 -29 -23v-248c0 -19 10 -22 29 -22h19v-10h-139v10h24c22 0 31 4 31 22v243
l-106 -279h-5l-116 279v-217c0 -43 10 -48 48 -48h8v-10h-115v10h6c33 0 43 5 43 48v222c0 19 -9 23 -29 23h-16v10h82l105 -260l100 260h79z" />
    <glyph glyph-name="acute" unicode="&#xb4;" 
d="M210 466l-4 4l99 123c15 19 29 33 46 34c19 1 30 -12 32 -26s-11 -30 -36 -46z" />
    <glyph glyph-name="dieresis" unicode="&#xa8;" 
d="M293 530c0 24 19 43 43 43c23 0 43 -19 43 -43s-20 -43 -43 -43c-24 0 -43 19 -43 43zM122 530c0 24 19 43 43 43c23 0 43 -19 43 -43s-20 -43 -43 -43c-24 0 -43 19 -43 43z" />
    <glyph glyph-name="notequal" unicode="&#x2260;" horiz-adv-x="523" 
d="M291 0v10h11c44 0 53 11 53 57v334h-213v-334c0 -45 9 -57 53 -57h34v-10h-197v10h10c44 0 53 12 53 57v334h-63v13h63v50c0 118 47 229 179 229c64 0 101 -26 120 -57c25 35 59 62 111 62c55 0 82 -30 82 -65c0 -21 -17 -39 -38 -39c-24 0 -35 19 -35 34c0 13 4 19 7 25
c3 5 8 12 8 19c0 11 -15 17 -31 17c-78 0 -96 -86 -96 -186v-89h105v-13h-105v-336c0 -45 10 -55 54 -55h19v-10h-184zM142 490v-76h213v72c0 31 5 70 14 95c-28 -5 -48 11 -48 37c0 8 4 19 9 25c8 10 6 19 -3 25c-10 7 -29 14 -61 14c-100 0 -124 -93 -124 -192z" />
    <glyph glyph-name="AE" unicode="&#xc6;" horiz-adv-x="868" 
d="M796 444h-10c-24 161 -32 227 -192 227h-82c-46 0 -65 -9 -65 -60v-249h74c97 0 112 61 113 142h10v-306h-10c-1 83 -15 151 -113 151h-74v-276c0 -50 19 -60 65 -60h94c153 0 165 84 197 248h11l-17 -261h-498v13h32c46 0 63 9 63 60v148h-228l-34 -57
c-39 -65 -51 -97 -51 -117c0 -18 10 -34 52 -34h20v-13h-177v12c52 9 71 40 116 117c52 90 176 308 284 489c11 18 15 28 13 39s-16 14 -42 14h-20v13h459zM173 234h221v385h-1z" />
    <glyph glyph-name="Oslash" unicode="&#xd8;" horiz-adv-x="607" 
d="M136 59c-62 63 -101 164 -101 281c0 205 117 357 269 357c68 0 129 -31 176 -85c28 46 81 131 81 131h17s-57 -92 -88 -142c50 -63 82 -154 82 -257c0 -200 -116 -357 -270 -357c-58 0 -111 23 -155 62c-23 -37 -67 -108 -67 -108h-18s48 77 74 118zM152 86
c1 0 310 498 310 497c-33 64 -85 105 -160 105c-151 0 -205 -163 -205 -344c0 -98 16 -192 55 -258zM470 568c0 1 -308 -496 -309 -496c33 -47 80 -76 143 -76c152 0 206 163 206 344c0 84 -12 166 -40 228z" />
    <glyph glyph-name="infinity" unicode="&#x221e;" horiz-adv-x="741" 
d="M658 626c0 -24 -16 -41 -39 -41c-25 0 -37 14 -37 37c0 9 7 23 10 27c8 10 4 18 -5 24c-10 7 -29 14 -61 14c-101 0 -124 -93 -124 -192v-81h136l123 8v-355c0 -48 10 -57 54 -57h10v-10h-174v10h10c44 0 54 10 54 57v275c0 52 -10 59 -54 59h-159v-334
c0 -45 9 -57 53 -57h20v-10h-184v10h11c44 0 53 11 53 57v334h-213v-334c0 -45 9 -57 53 -57h34v-10h-197v10h10c44 0 53 12 53 57v334h-63v13h63v50c0 118 47 229 179 229c64 0 104 -22 126 -60c36 49 78 65 134 65c81 0 124 -40 124 -72zM142 490v-76h213v61
c0 31 9 83 18 107c-32 -9 -52 10 -52 36c0 10 5 20 10 26c8 10 5 18 -4 24c-10 7 -29 14 -61 14c-100 0 -124 -93 -124 -192z" />
    <glyph glyph-name="plusminus" unicode="&#xb1;" horiz-adv-x="738" 
d="M614 682l47 15v-626c0 -47 8 -61 49 -61h15v-10h-174v10h13c42 0 51 14 51 61v330h-213v-334c0 -45 9 -57 53 -57h20v-10h-184v10h11c44 0 53 11 53 57v334h-213v-334c0 -45 9 -57 53 -57h34v-10h-197v10h10c44 0 53 12 53 57v334h-63v13h63v50c0 118 47 229 179 229
c64 0 104 -21 126 -59c34 46 80 64 134 64c31 0 60 -8 80 -16zM402 491v-77h213v171c-19 3 -34 14 -34 37c0 11 5 20 10 26c8 10 5 19 -4 25c-10 7 -29 14 -61 14c-95 0 -124 -82 -124 -196zM142 490v-76h213v61c0 31 9 83 18 107c-32 -9 -52 10 -52 36c0 8 4 19 9 25
c8 10 6 19 -3 25c-10 7 -29 14 -61 14c-100 0 -124 -93 -124 -192z" />
    <glyph glyph-name="lessequal" unicode="&#x2264;" horiz-adv-x="859" 
d="M577 693c44 0 77 -28 77 -59c0 -22 -18 -43 -43 -43s-45 18 -45 40c0 10 5 26 12 30c16 15 6 22 -5 24c-47 2 -99 -40 -99 -121c0 -86 102 -177 192 -177c83 0 124 48 123 93c-1 8 -11 21 -27 5c-5 -6 -20 -11 -31 -11c-22 0 -41 18 -41 43c0 23 22 40 44 40
c33 0 62 -31 62 -73c0 -65 -68 -125 -149 -125c-112 0 -199 84 -199 191c0 80 62 143 129 143zM282 693c67 0 129 -63 129 -143c0 -107 -87 -191 -199 -191c-81 0 -149 60 -149 125c0 42 29 73 62 73c22 0 44 -17 44 -40c0 -25 -19 -43 -41 -43c-11 0 -26 5 -31 11
c-17 16 -26 3 -27 -5c-2 -45 40 -93 123 -93c90 0 192 91 192 177c0 81 -52 123 -99 121c-11 -2 -21 -9 -5 -24c7 -4 12 -20 12 -30c0 -22 -20 -40 -45 -40s-43 21 -43 43c0 31 33 59 77 59zM577 -9c-67 0 -129 63 -129 143c0 107 87 191 199 191c81 0 149 -60 149 -125
c0 -42 -29 -73 -62 -73c-22 0 -44 17 -44 40c0 25 19 43 41 43c11 0 26 -5 31 -11c16 -16 26 -3 27 5c1 45 -40 93 -123 93c-90 0 -192 -91 -192 -177c0 -81 52 -123 99 -121c12 2 21 9 5 24c-7 4 -12 20 -12 30c0 22 20 40 45 40s43 -21 43 -43c0 -31 -33 -59 -77 -59z
M282 -9c-44 0 -77 28 -77 59c0 22 18 43 43 43s45 -18 45 -40c0 -10 -5 -26 -12 -30c-16 -15 -6 -22 5 -24c47 -2 99 40 99 121c0 86 -102 177 -192 177c-83 0 -125 -48 -123 -93c1 -8 10 -21 27 -5c5 6 20 11 31 11c22 0 41 -18 41 -43c0 -23 -22 -40 -44 -40
c-33 0 -62 31 -62 73c0 65 68 125 149 125c112 0 199 -84 199 -191c0 -80 -62 -143 -129 -143z" />
    <glyph glyph-name="greaterequal" unicode="&#x2265;" horiz-adv-x="859" 
d="M577 693c44 0 77 -28 77 -59c0 -22 -18 -43 -43 -43s-45 18 -45 40c0 10 5 26 12 30c16 15 6 22 -5 24c-47 2 -99 -40 -99 -121c0 -86 102 -177 192 -177c83 0 124 48 123 93c-1 8 -11 21 -27 5c-5 -6 -20 -11 -31 -11c-22 0 -41 18 -41 43c0 23 22 40 44 40
c33 0 62 -31 62 -73c0 -65 -68 -125 -149 -125c-112 0 -199 84 -199 191c0 80 62 143 129 143zM282 693c67 0 129 -63 129 -143c0 -107 -87 -191 -199 -191c-81 0 -149 60 -149 125c0 42 29 73 62 73c22 0 44 -17 44 -40c0 -25 -19 -43 -41 -43c-11 0 -26 5 -31 11
c-17 16 -26 3 -27 -5c-2 -45 40 -93 123 -93c90 0 192 91 192 177c0 81 -52 123 -99 121c-11 -2 -21 -9 -5 -24c7 -4 12 -20 12 -30c0 -22 -20 -40 -45 -40s-43 21 -43 43c0 31 33 59 77 59zM577 -9c-67 0 -129 63 -129 143c0 107 87 191 199 191c81 0 149 -60 149 -125
c0 -42 -29 -73 -62 -73c-22 0 -44 17 -44 40c0 25 19 43 41 43c11 0 26 -5 31 -11c16 -16 26 -3 27 5c1 45 -40 93 -123 93c-90 0 -192 -91 -192 -177c0 -81 52 -123 99 -121c12 2 21 9 5 24c-7 4 -12 20 -12 30c0 22 20 40 45 40s43 -21 43 -43c0 -31 -33 -59 -77 -59z
M282 -9c-44 0 -77 28 -77 59c0 22 18 43 43 43s45 -18 45 -40c0 -10 -5 -26 -12 -30c-16 -15 -6 -22 5 -24c47 -2 99 40 99 121c0 86 -102 177 -192 177c-83 0 -125 -48 -123 -93c1 -8 10 -21 27 -5c5 6 20 11 31 11c22 0 41 -18 41 -43c0 -23 -22 -40 -44 -40
c-33 0 -62 31 -62 73c0 65 68 125 149 125c112 0 199 -84 199 -191c0 -80 -62 -143 -129 -143z" />
    <glyph glyph-name="yen" unicode="&#xa5;" horiz-adv-x="512" 
d="M154 410h-120v11h114l-86 151c-25 40 -38 63 -78 63h-7v12h205v-12h-25c-29 0 -40 -12 -40 -26c0 -10 3 -20 10 -33l143 -266l112 185c36 59 50 87 50 101c0 26 -14 39 -52 39h-21v12h182v-12c-64 -10 -74 -43 -141 -147l-44 -68h119v-11s-127 0 -126 0l-72 -115v-14h198
v-11h-198v-181c0 -50 13 -75 54 -75h41v-13h-247v13h41c39 0 58 25 58 75v181h-190v11h190z" />
    <glyph glyph-name="mu" unicode="&#xb5;" horiz-adv-x="859" 
d="M577 693c44 0 77 -28 77 -59c0 -22 -18 -43 -43 -43s-45 18 -45 40c0 10 5 26 12 30c16 15 6 22 -5 24c-47 2 -99 -40 -99 -121c0 -86 102 -177 192 -177c83 0 124 48 123 93c-1 8 -11 21 -27 5c-5 -6 -20 -11 -31 -11c-22 0 -41 18 -41 43c0 23 22 40 44 40
c33 0 62 -31 62 -73c0 -65 -68 -125 -149 -125c-112 0 -199 84 -199 191c0 80 62 143 129 143zM282 693c67 0 129 -63 129 -143c0 -107 -87 -191 -199 -191c-81 0 -149 60 -149 125c0 42 29 73 62 73c22 0 44 -17 44 -40c0 -25 -19 -43 -41 -43c-11 0 -26 5 -31 11
c-17 16 -26 3 -27 -5c-2 -45 40 -93 123 -93c90 0 192 91 192 177c0 81 -52 123 -99 121c-11 -2 -21 -9 -5 -24c7 -4 12 -20 12 -30c0 -22 -20 -40 -45 -40s-43 21 -43 43c0 31 33 59 77 59zM577 -9c-67 0 -129 63 -129 143c0 107 87 191 199 191c81 0 149 -60 149 -125
c0 -42 -29 -73 -62 -73c-22 0 -44 17 -44 40c0 25 19 43 41 43c11 0 26 -5 31 -11c16 -16 26 -3 27 5c1 45 -40 93 -123 93c-90 0 -192 -91 -192 -177c0 -81 52 -123 99 -121c12 2 21 9 5 24c-7 4 -12 20 -12 30c0 22 20 40 45 40s43 -21 43 -43c0 -31 -33 -59 -77 -59z
M282 -9c-44 0 -77 28 -77 59c0 22 18 43 43 43s45 -18 45 -40c0 -10 -5 -26 -12 -30c-16 -15 -6 -22 5 -24c47 -2 99 40 99 121c0 86 -102 177 -192 177c-83 0 -125 -48 -123 -93c1 -8 10 -21 27 -5c5 6 20 11 31 11c22 0 41 -18 41 -43c0 -23 -22 -40 -44 -40
c-33 0 -62 31 -62 73c0 65 68 125 149 125c112 0 199 -84 199 -191c0 -80 -62 -143 -129 -143z" />
    <glyph glyph-name="mu" unicode="&#x3bc;" horiz-adv-x="859" 
d="M577 693c44 0 77 -28 77 -59c0 -22 -18 -43 -43 -43s-45 18 -45 40c0 10 5 26 12 30c16 15 6 22 -5 24c-47 2 -99 -40 -99 -121c0 -86 102 -177 192 -177c83 0 124 48 123 93c-1 8 -11 21 -27 5c-5 -6 -20 -11 -31 -11c-22 0 -41 18 -41 43c0 23 22 40 44 40
c33 0 62 -31 62 -73c0 -65 -68 -125 -149 -125c-112 0 -199 84 -199 191c0 80 62 143 129 143zM282 693c67 0 129 -63 129 -143c0 -107 -87 -191 -199 -191c-81 0 -149 60 -149 125c0 42 29 73 62 73c22 0 44 -17 44 -40c0 -25 -19 -43 -41 -43c-11 0 -26 5 -31 11
c-17 16 -26 3 -27 -5c-2 -45 40 -93 123 -93c90 0 192 91 192 177c0 81 -52 123 -99 121c-11 -2 -21 -9 -5 -24c7 -4 12 -20 12 -30c0 -22 -20 -40 -45 -40s-43 21 -43 43c0 31 33 59 77 59zM577 -9c-67 0 -129 63 -129 143c0 107 87 191 199 191c81 0 149 -60 149 -125
c0 -42 -29 -73 -62 -73c-22 0 -44 17 -44 40c0 25 19 43 41 43c11 0 26 -5 31 -11c16 -16 26 -3 27 5c1 45 -40 93 -123 93c-90 0 -192 -91 -192 -177c0 -81 52 -123 99 -121c12 2 21 9 5 24c-7 4 -12 20 -12 30c0 22 20 40 45 40s43 -21 43 -43c0 -31 -33 -59 -77 -59z
M282 -9c-44 0 -77 28 -77 59c0 22 18 43 43 43s45 -18 45 -40c0 -10 -5 -26 -12 -30c-16 -15 -6 -22 5 -24c47 -2 99 40 99 121c0 86 -102 177 -192 177c-83 0 -125 -48 -123 -93c1 -8 10 -21 27 -5c5 6 20 11 31 11c22 0 41 -18 41 -43c0 -23 -22 -40 -44 -40
c-33 0 -62 31 -62 73c0 65 68 125 149 125c112 0 199 -84 199 -191c0 -80 -62 -143 -129 -143z" />
    <glyph glyph-name="partialdiff" unicode="&#x2202;" horiz-adv-x="599" 
d="M10 13h36c46 0 60 16 60 61v536c0 48 -17 61 -63 61h-32v13h260c140 0 236 -60 236 -173c0 -108 -98 -175 -195 -184v-3c58 -15 114 -82 155 -188c33 -87 45 -123 99 -123h27v-13h-138l-42 121c-49 141 -92 205 -212 205h-42v-252c0 -45 16 -61 62 -61h42v-13h-253v13z
M159 339h131c129 0 156 102 156 173c0 58 -12 159 -182 159h-40c-46 0 -65 -10 -65 -58v-274z" />
    <glyph glyph-name="summation" unicode="&#x2211;" horiz-adv-x="859" 
d="M577 693c44 0 77 -28 77 -59c0 -22 -18 -43 -43 -43s-45 18 -45 40c0 10 5 26 12 30c16 15 6 22 -5 24c-47 2 -99 -40 -99 -121c0 -86 102 -177 192 -177c83 0 124 48 123 93c-1 8 -11 21 -27 5c-5 -6 -20 -11 -31 -11c-22 0 -41 18 -41 43c0 23 22 40 44 40
c33 0 62 -31 62 -73c0 -65 -68 -125 -149 -125c-112 0 -199 84 -199 191c0 80 62 143 129 143zM282 693c67 0 129 -63 129 -143c0 -107 -87 -191 -199 -191c-81 0 -149 60 -149 125c0 42 29 73 62 73c22 0 44 -17 44 -40c0 -25 -19 -43 -41 -43c-11 0 -26 5 -31 11
c-17 16 -26 3 -27 -5c-2 -45 40 -93 123 -93c90 0 192 91 192 177c0 81 -52 123 -99 121c-11 -2 -21 -9 -5 -24c7 -4 12 -20 12 -30c0 -22 -20 -40 -45 -40s-43 21 -43 43c0 31 33 59 77 59zM577 -9c-67 0 -129 63 -129 143c0 107 87 191 199 191c81 0 149 -60 149 -125
c0 -42 -29 -73 -62 -73c-22 0 -44 17 -44 40c0 25 19 43 41 43c11 0 26 -5 31 -11c16 -16 26 -3 27 5c1 45 -40 93 -123 93c-90 0 -192 -91 -192 -177c0 -81 52 -123 99 -121c12 2 21 9 5 24c-7 4 -12 20 -12 30c0 22 20 40 45 40s43 -21 43 -43c0 -31 -33 -59 -77 -59z
M282 -9c-44 0 -77 28 -77 59c0 22 18 43 43 43s45 -18 45 -40c0 -10 -5 -26 -12 -30c-16 -15 -6 -22 5 -24c47 -2 99 40 99 121c0 86 -102 177 -192 177c-83 0 -125 -48 -123 -93c1 -8 10 -21 27 -5c5 6 20 11 31 11c22 0 41 -18 41 -43c0 -23 -22 -40 -44 -40
c-33 0 -62 31 -62 73c0 65 68 125 149 125c112 0 199 -84 199 -191c0 -80 -62 -143 -129 -143z" />
    <glyph glyph-name="product" unicode="&#x220f;" horiz-adv-x="830" 
d="M777 342c0 -201 -153 -358 -362 -358c-208 0 -361 158 -361 358c0 201 153 358 361 358c210 0 362 -155 362 -358zM760 342c0 190 -146 345 -345 345s-344 -155 -344 -345s145 -345 344 -345s345 155 345 345zM402 165v-14h-168v14h24c29 0 42 9 42 39v295
c0 29 -9 36 -39 36h-18v13h178c82 0 138 -30 138 -101c0 -56 -53 -90 -110 -97v-3c34 -7 56 -45 69 -94c19 -74 25 -82 40 -82c10 0 25 18 23 68h13c6 -62 -10 -92 -48 -92c-31 0 -61 15 -73 94c-14 94 -23 104 -86 104h-45v-143c0 -29 11 -37 38 -37h22zM512 448
c0 48 -28 88 -113 88h-16c-30 0 -41 -4 -41 -36v-143h74c77 0 96 45 96 91z" />
    <glyph glyph-name="pi" unicode="&#x3c0;" horiz-adv-x="830" 
d="M415 700c210 0 362 -155 362 -358c0 -201 -153 -358 -362 -358c-208 0 -361 158 -361 358c0 201 153 358 361 358zM415 687c-199 0 -344 -155 -344 -345s145 -345 344 -345s345 155 345 345s-146 345 -345 345zM370 326v-129c0 -32 12 -39 42 -39h26v-14h-170v14h20
c28 0 40 7 40 39v299c0 34 -12 39 -40 39h-17v13h170c83 0 151 -35 151 -106c0 -72 -74 -116 -165 -116h-57zM370 338h57c113 0 117 85 117 99c0 21 -6 99 -114 99h-22c-31 0 -38 -8 -38 -40v-158z" />
    <glyph glyph-name="integral" unicode="&#x222b;" horiz-adv-x="859" 
d="M577 693c44 0 77 -28 77 -59c0 -22 -18 -43 -43 -43s-45 18 -45 40c0 10 5 26 12 30c16 15 6 22 -5 24c-47 2 -99 -40 -99 -121c0 -86 102 -177 192 -177c83 0 124 48 123 93c-1 8 -11 21 -27 5c-5 -6 -20 -11 -31 -11c-22 0 -41 18 -41 43c0 23 22 40 44 40
c33 0 62 -31 62 -73c0 -65 -68 -125 -149 -125c-112 0 -199 84 -199 191c0 80 62 143 129 143zM282 693c67 0 129 -63 129 -143c0 -107 -87 -191 -199 -191c-81 0 -149 60 -149 125c0 42 29 73 62 73c22 0 44 -17 44 -40c0 -25 -19 -43 -41 -43c-11 0 -26 5 -31 11
c-17 16 -26 3 -27 -5c-2 -45 40 -93 123 -93c90 0 192 91 192 177c0 81 -52 123 -99 121c-11 -2 -21 -9 -5 -24c7 -4 12 -20 12 -30c0 -22 -20 -40 -45 -40s-43 21 -43 43c0 31 33 59 77 59zM577 -9c-67 0 -129 63 -129 143c0 107 87 191 199 191c81 0 149 -60 149 -125
c0 -42 -29 -73 -62 -73c-22 0 -44 17 -44 40c0 25 19 43 41 43c11 0 26 -5 31 -11c16 -16 26 -3 27 5c1 45 -40 93 -123 93c-90 0 -192 -91 -192 -177c0 -81 52 -123 99 -121c12 2 21 9 5 24c-7 4 -12 20 -12 30c0 22 20 40 45 40s43 -21 43 -43c0 -31 -33 -59 -77 -59z
M282 -9c-44 0 -77 28 -77 59c0 22 18 43 43 43s45 -18 45 -40c0 -10 -5 -26 -12 -30c-16 -15 -6 -22 5 -24c47 -2 99 40 99 121c0 86 -102 177 -192 177c-83 0 -125 -48 -123 -93c1 -8 10 -21 27 -5c5 6 20 11 31 11c22 0 41 -18 41 -43c0 -23 -22 -40 -44 -40
c-33 0 -62 31 -62 73c0 65 68 125 149 125c112 0 199 -84 199 -191c0 -80 -62 -143 -129 -143z" />
    <glyph glyph-name="ordfeminine" unicode="&#xaa;" horiz-adv-x="383" 
d="M62 401c0 69 60 105 192 130v25c0 71 -35 89 -77 89c-40 0 -73 -17 -73 -30c0 -4 2 -4 4 -4c16 0 26 -12 26 -32c0 -17 -16 -31 -31 -31c-16 0 -30 14 -30 34c0 37 41 73 113 73c49 0 104 -16 104 -104v-148c0 -38 6 -48 19 -48c20 0 24 27 25 59h10
c4 -62 -21 -81 -46 -81c-27 0 -49 12 -44 68h-2c-16 -37 -47 -69 -106 -69c-47 0 -84 22 -84 69zM57 269h275v-14h-275v14zM254 466v54c-128 -23 -148 -62 -148 -107c0 -46 20 -67 61 -67c32 0 87 33 87 120z" />
    <glyph glyph-name="ordmasculine" unicode="&#xba;" horiz-adv-x="371" 
d="M49 494c0 95 68 163 137 163c70 0 136 -66 136 -162c0 -91 -63 -165 -135 -165s-138 73 -138 164zM56 269h259v-14h-259v14zM279 493c0 84 -25 155 -93 155c-67 0 -92 -70 -92 -153c0 -82 23 -156 93 -156s92 72 92 154z" />
    <glyph glyph-name="Omega" unicode="&#x3a9;" horiz-adv-x="489" 
d="M42 330h405v-18h-405v18z" />
    <glyph glyph-name="Omega" unicode="&#x2126;" horiz-adv-x="489" 
d="M42 330h405v-18h-405v18z" />
    <glyph glyph-name="ae" unicode="&#xe6;" horiz-adv-x="647" 
d="M198 426c50 0 104 -13 127 -71c35 46 81 73 133 73c69 0 160 -52 160 -182c0 -1 -1 -26 -2 -31h-283c0 -104 35 -206 136 -206c75 0 115 47 138 84l8 -6c-27 -53 -73 -100 -155 -100c-77 0 -139 44 -165 118c-20 -70 -77 -116 -157 -116c-64 0 -108 30 -108 94
c0 93 81 142 259 175v34c0 96 -47 123 -104 123c-54 0 -101 -24 -101 -41c0 -3 2 -3 5 -4c17 -4 31 -17 31 -39s-17 -38 -37 -38c-19 0 -37 14 -37 41c0 46 54 92 152 92zM333 228h179c44 0 51 7 51 40c0 80 -34 151 -106 151c-79 0 -120 -83 -124 -191zM289 171v75
c-173 -31 -204 -87 -204 -147c0 -57 27 -91 83 -91c38 0 121 32 121 163z" />
    <glyph glyph-name="oslash" unicode="&#xf8;" horiz-adv-x="421" 
d="M94 38c-41 41 -68 102 -68 170c0 129 92 220 185 220c39 0 77 -15 109 -42l40 62h16s-27 -42 -46 -71c39 -39 65 -97 65 -167c0 -123 -86 -223 -183 -223c-39 0 -76 15 -107 42l-38 -59h-17zM111 64l194 299c-21 35 -51 56 -94 56c-91 0 -127 -97 -127 -210
c0 -54 8 -106 27 -145zM312 349c0 1 -193 -299 -193 -299c20 -33 51 -54 93 -54c95 0 127 100 127 211c0 54 -8 104 -27 142z" />
    <glyph glyph-name="questiondown" unicode="&#xbf;" horiz-adv-x="393" 
d="M214 476c0 -70 -2 -85 -81 -217c-30 -49 -35 -93 -35 -121c0 -90 32 -136 104 -136c50 0 110 33 121 81c2 9 2 9 -7 6c-33 -11 -68 7 -68 47c0 23 18 49 47 49c31 0 55 -25 55 -62c0 -70 -65 -130 -148 -130c-84 0 -157 48 -157 153c0 64 35 106 66 146
c63 81 92 116 92 187v18h11v-21zM163 651c0 27 19 46 46 46c26 0 45 -19 45 -46c0 -26 -19 -45 -45 -45c-27 0 -46 19 -46 45z" />
    <glyph glyph-name="exclamdown" unicode="&#xa1;" horiz-adv-x="249" 
d="M95 138c11 72 25 215 25 365h10c0 -150 14 -295 25 -365c6 -39 10 -68 10 -85c0 -38 -12 -64 -40 -64c-29 0 -39 25 -39 64c0 17 3 46 9 85zM171 651c0 -26 -19 -45 -46 -45c-26 0 -45 19 -45 45c0 27 19 46 45 46c27 0 46 -19 46 -46z" />
    <glyph glyph-name="logicalnot" unicode="&#xac;" horiz-adv-x="859" 
d="M577 693c44 0 77 -28 77 -59c0 -22 -18 -43 -43 -43s-45 18 -45 40c0 10 5 26 12 30c16 15 6 22 -5 24c-47 2 -99 -40 -99 -121c0 -86 102 -177 192 -177c83 0 124 48 123 93c-1 8 -11 21 -27 5c-5 -6 -20 -11 -31 -11c-22 0 -41 18 -41 43c0 23 22 40 44 40
c33 0 62 -31 62 -73c0 -65 -68 -125 -149 -125c-112 0 -199 84 -199 191c0 80 62 143 129 143zM282 693c67 0 129 -63 129 -143c0 -107 -87 -191 -199 -191c-81 0 -149 60 -149 125c0 42 29 73 62 73c22 0 44 -17 44 -40c0 -25 -19 -43 -41 -43c-11 0 -26 5 -31 11
c-17 16 -26 3 -27 -5c-2 -45 40 -93 123 -93c90 0 192 91 192 177c0 81 -52 123 -99 121c-11 -2 -21 -9 -5 -24c7 -4 12 -20 12 -30c0 -22 -20 -40 -45 -40s-43 21 -43 43c0 31 33 59 77 59zM577 -9c-67 0 -129 63 -129 143c0 107 87 191 199 191c81 0 149 -60 149 -125
c0 -42 -29 -73 -62 -73c-22 0 -44 17 -44 40c0 25 19 43 41 43c11 0 26 -5 31 -11c16 -16 26 -3 27 5c1 45 -40 93 -123 93c-90 0 -192 -91 -192 -177c0 -81 52 -123 99 -121c12 2 21 9 5 24c-7 4 -12 20 -12 30c0 22 20 40 45 40s43 -21 43 -43c0 -31 -33 -59 -77 -59z
M282 -9c-44 0 -77 28 -77 59c0 22 18 43 43 43s45 -18 45 -40c0 -10 -5 -26 -12 -30c-16 -15 -6 -22 5 -24c47 -2 99 40 99 121c0 86 -102 177 -192 177c-83 0 -125 -48 -123 -93c1 -8 10 -21 27 -5c5 6 20 11 31 11c22 0 41 -18 41 -43c0 -23 -22 -40 -44 -40
c-33 0 -62 31 -62 73c0 65 68 125 149 125c112 0 199 -84 199 -191c0 -80 -62 -143 -129 -143z" />
    <glyph glyph-name="radical" unicode="&#x221a;" horiz-adv-x="523" 
d="M244 -7l-112 209c-27 51 -51 68 -106 71v12h113l113 -213c49 429 135 626 197 626c16 0 26 -8 27 -22c1 -18 -11 -27 -31 -49c-105 -119 -163 -371 -192 -634h-9z" />
    <glyph glyph-name="florin" unicode="&#x192;" horiz-adv-x="340" 
d="M107 383h-82l1 11h82c18 166 61 265 163 265c64 0 87 -47 87 -78c0 -25 -17 -42 -41 -42c-21 0 -36 14 -36 33c0 14 7 27 21 35c19 10 34 4 19 21c-11 12 -30 21 -54 21c-60 0 -92 -83 -108 -255h109l-1 -11h-109c-4 -41 -8 -89 -11 -124c-28 -354 -70 -466 -155 -466
c-37 0 -57 30 -57 55c0 27 18 43 40 43c23 0 34 -17 33 -35c-1 -26 -23 -33 -23 -42c0 -3 5 -8 17 -8c51 0 64 88 73 196c4 41 10 126 19 236c3 38 8 94 13 145z" />
    <glyph glyph-name="approxequal" unicode="&#x2248;" horiz-adv-x="490" 
d="M58 143l178 179l-181 180l9 9l181 -181l181 181l8 -9l-180 -180l178 -179l-9 -9l-178 179l-179 -179z" />
    <glyph glyph-name="Delta" unicode="&#x394;" horiz-adv-x="470" 
d="M355 -54v396c0 52 -10 59 -54 59h-159v-334c0 -45 9 -57 53 -57h20v-10h-183v10h10c44 0 53 12 53 57v334h-63v13h63v43c0 128 44 241 179 241c81 0 124 -40 124 -72c0 -24 -19 -41 -36 -41c-25 0 -41 14 -41 38c0 11 4 19 9 25c8 10 6 19 -3 25c-10 7 -29 14 -61 14
c-101 0 -124 -93 -124 -192v-81h136l124 8v-460c0 -97 -43 -166 -117 -166c-55 0 -91 29 -91 71c0 23 18 42 42 42c20 0 36 -14 36 -37c0 -10 -4 -19 -10 -25c-8 -8 -16 -13 -16 -20c0 -16 19 -23 38 -23c35 0 71 11 71 142z" />
    <glyph glyph-name="Delta" unicode="&#x2206;" horiz-adv-x="470" 
d="M355 -54v396c0 52 -10 59 -54 59h-159v-334c0 -45 9 -57 53 -57h20v-10h-183v10h10c44 0 53 12 53 57v334h-63v13h63v43c0 128 44 241 179 241c81 0 124 -40 124 -72c0 -24 -19 -41 -36 -41c-25 0 -41 14 -41 38c0 11 4 19 9 25c8 10 6 19 -3 25c-10 7 -29 14 -61 14
c-101 0 -124 -93 -124 -192v-81h136l124 8v-460c0 -97 -43 -166 -117 -166c-55 0 -91 29 -91 71c0 23 18 42 42 42c20 0 36 -14 36 -37c0 -10 -4 -19 -10 -25c-8 -8 -16 -13 -16 -20c0 -16 19 -23 38 -23c35 0 71 11 71 142z" />
    <glyph glyph-name="guillemotleft" unicode="&#xab;" horiz-adv-x="446" 
d="M404 0l-193 213l193 212h12l-143 -212l143 -213h-12zM229 0l-193 213l193 212h12l-143 -212l143 -213h-12z" />
    <glyph glyph-name="guillemotright" unicode="&#xbb;" horiz-adv-x="446" 
d="M217 0h-12l143 213l-143 212h12l193 -212zM42 0h-12l143 213l-143 212h12l193 -212z" />
    <glyph glyph-name="ellipsis" unicode="&#x2026;" horiz-adv-x="543" 
d="M494 32c0 -25 -18 -43 -44 -43c-24 0 -42 18 -42 43s18 43 42 43c26 0 44 -18 44 -43zM315 32c0 -25 -19 -43 -44 -43s-43 18 -43 43s18 43 43 43s44 -18 44 -43zM135 32c0 -25 -18 -43 -44 -43c-24 0 -42 18 -42 43s18 43 42 43c26 0 44 -18 44 -43z" />
    <glyph glyph-name="nbspace" unicode="&#xa0;" horiz-adv-x="120" 
 />
    <glyph glyph-name="Agrave" unicode="&#xc0;" horiz-adv-x="624" 
d="M434 221h-282l-17 -52c-14 -44 -25 -76 -25 -104c0 -36 21 -52 57 -52h20v-13h-189v13c54 3 75 41 102 118l204 566h14l218 -613c21 -60 49 -70 90 -71v-13h-231v13h28c39 0 63 16 63 36c0 18 -9 48 -23 88zM430 234l-137 389l-137 -389h274zM355 719l-137 89
c-25 16 -37 32 -36 46c1 15 13 28 32 27c17 -1 31 -16 46 -35l99 -123z" />
    <glyph glyph-name="Atilde" unicode="&#xc3;" horiz-adv-x="624" 
d="M434 221h-282l-17 -52c-14 -44 -25 -76 -25 -104c0 -36 21 -52 57 -52h20v-13h-189v13c54 3 75 41 102 118l204 566h14l218 -613c21 -60 49 -70 90 -71v-13h-231v13h28c39 0 63 16 63 36c0 18 -9 48 -23 88zM430 234l-137 389l-137 -389h274zM274 810
c39 -1 87 -22 118 -24c23 -1 33 7 46 41l8 -2c-16 -59 -41 -88 -91 -86c-39 1 -87 23 -118 25c-23 1 -35 -9 -47 -40l-8 2c15 60 41 85 92 84z" />
    <glyph glyph-name="Otilde" unicode="&#xd5;" horiz-adv-x="607" 
d="M35 340c0 205 117 357 269 357c149 0 268 -153 268 -353s-116 -357 -270 -357c-150 0 -267 150 -267 353zM510 340c0 181 -56 348 -208 348c-151 0 -205 -163 -205 -344s56 -348 207 -348c152 0 206 163 206 344zM270 810c39 -1 87 -22 118 -24c23 -1 33 7 46 41l8 -2
c-16 -59 -41 -88 -91 -86c-39 1 -87 23 -118 25c-23 1 -35 -9 -47 -40l-8 2c15 60 41 85 92 84z" />
    <glyph glyph-name="OE" unicode="&#x152;" horiz-adv-x="939" 
d="M868 0h-518c-167 0 -315 107 -315 344c0 211 133 340 321 340h501l10 -240h-10c-24 161 -32 227 -192 227h-82c-46 0 -65 -9 -65 -60v-249h74c97 0 112 61 113 142h10v-306h-10c-1 83 -15 151 -113 151h-74v-276c0 -50 19 -60 65 -60h94c153 0 165 84 197 248h11zM355 13
h44c48 0 66 9 66 58v541c0 49 -16 59 -63 59h-46c-176 0 -259 -120 -259 -331c0 -204 76 -327 258 -327z" />
    <glyph glyph-name="oe" unicode="&#x153;" horiz-adv-x="709" 
d="M363 86c-33 -58 -90 -99 -151 -99c-97 0 -186 98 -186 221c0 129 92 220 185 220c63 0 122 -39 156 -101c33 63 91 101 153 101c69 0 160 -52 160 -182c0 -1 -1 -26 -2 -31h-283c0 -104 35 -206 136 -206c84 0 115 47 138 84l8 -6c-27 -53 -73 -100 -155 -100
c-69 0 -129 37 -159 99zM395 228h179c44 0 51 7 51 40c0 80 -34 151 -106 151c-79 0 -120 -83 -124 -191zM339 207c0 113 -36 212 -128 212c-91 0 -127 -97 -127 -210c0 -111 34 -213 128 -213c95 0 127 100 127 211z" />
    <glyph glyph-name="endash" unicode="&#x2013;" horiz-adv-x="422" 
d="M25 239h372v-18h-372v18z" />
    <glyph glyph-name="emdash" unicode="&#x2014;" horiz-adv-x="844" 
d="M25 239h794v-18h-794v18z" />
    <glyph glyph-name="quotedblleft" unicode="&#x201c;" horiz-adv-x="364" 
d="M307 683c-78 -64 -100 -120 -100 -147c0 -30 15 -9 38 -9c27 0 46 -17 46 -44s-19 -47 -47 -47c-26 0 -54 20 -53 87c1 51 34 108 109 169zM167 683c-78 -64 -100 -120 -100 -147c0 -30 15 -9 38 -9c27 0 46 -17 46 -44s-19 -47 -47 -47c-26 0 -54 20 -53 87
c1 51 34 108 109 169z" />
    <glyph glyph-name="quotedblright" unicode="&#x201d;" horiz-adv-x="364" 
d="M198 442c78 64 100 120 100 147c0 30 -15 9 -38 9c-27 0 -46 17 -46 44s19 47 47 47c26 0 54 -20 53 -87c-1 -51 -34 -108 -109 -169zM55 442c78 64 100 120 100 147c0 30 -15 9 -38 9c-27 0 -46 17 -46 44s19 47 47 47c26 0 54 -20 53 -87c-1 -51 -34 -108 -109 -169z
" />
    <glyph glyph-name="quoteleft" unicode="&#x2018;" horiz-adv-x="224" 
d="M167 683c-78 -64 -100 -120 -100 -147c0 -30 15 -9 38 -9c27 0 46 -17 46 -44s-19 -47 -47 -47c-26 0 -54 20 -53 87c1 51 34 108 109 169z" />
    <glyph glyph-name="quoteright" unicode="&#x2019;" horiz-adv-x="224" 
d="M55 442c78 64 100 120 100 147c0 30 -15 9 -38 9c-27 0 -46 17 -46 44s19 47 47 47c26 0 54 -20 53 -87c-1 -51 -34 -108 -109 -169z" />
    <glyph glyph-name="divide" unicode="&#xf7;" horiz-adv-x="490" 
d="M215 217c0 18 14 31 32 31s31 -13 31 -31s-13 -32 -31 -32s-32 14 -32 32zM215 469c0 18 14 31 32 31s31 -13 31 -31s-13 -32 -31 -32s-32 14 -32 32zM63 335v13h364v-13h-364z" />
    <glyph glyph-name="lozenge" unicode="&#x25ca;" horiz-adv-x="859" 
d="M577 693c44 0 77 -28 77 -59c0 -22 -18 -43 -43 -43s-45 18 -45 40c0 10 5 26 12 30c16 15 6 22 -5 24c-47 2 -99 -40 -99 -121c0 -86 102 -177 192 -177c83 0 124 48 123 93c-1 8 -11 21 -27 5c-5 -6 -20 -11 -31 -11c-22 0 -41 18 -41 43c0 23 22 40 44 40
c33 0 62 -31 62 -73c0 -65 -68 -125 -149 -125c-112 0 -199 84 -199 191c0 80 62 143 129 143zM282 693c67 0 129 -63 129 -143c0 -107 -87 -191 -199 -191c-81 0 -149 60 -149 125c0 42 29 73 62 73c22 0 44 -17 44 -40c0 -25 -19 -43 -41 -43c-11 0 -26 5 -31 11
c-17 16 -26 3 -27 -5c-2 -45 40 -93 123 -93c90 0 192 91 192 177c0 81 -52 123 -99 121c-11 -2 -21 -9 -5 -24c7 -4 12 -20 12 -30c0 -22 -20 -40 -45 -40s-43 21 -43 43c0 31 33 59 77 59zM577 -9c-67 0 -129 63 -129 143c0 107 87 191 199 191c81 0 149 -60 149 -125
c0 -42 -29 -73 -62 -73c-22 0 -44 17 -44 40c0 25 19 43 41 43c11 0 26 -5 31 -11c16 -16 26 -3 27 5c1 45 -40 93 -123 93c-90 0 -192 -91 -192 -177c0 -81 52 -123 99 -121c12 2 21 9 5 24c-7 4 -12 20 -12 30c0 22 20 40 45 40s43 -21 43 -43c0 -31 -33 -59 -77 -59z
M282 -9c-44 0 -77 28 -77 59c0 22 18 43 43 43s45 -18 45 -40c0 -10 -5 -26 -12 -30c-16 -15 -6 -22 5 -24c47 -2 99 40 99 121c0 86 -102 177 -192 177c-83 0 -125 -48 -123 -93c1 -8 10 -21 27 -5c5 6 20 11 31 11c22 0 41 -18 41 -43c0 -23 -22 -40 -44 -40
c-33 0 -62 31 -62 73c0 65 68 125 149 125c112 0 199 -84 199 -191c0 -80 -62 -143 -129 -143z" />
    <glyph glyph-name="ydieresis" unicode="&#xff;" horiz-adv-x="427" 
d="M63 -208c-55 0 -78 35 -78 64c0 34 20 50 43 50c21 0 39 -14 39 -35c0 -20 -10 -30 -17 -37c-5 -5 -9 -8 -9 -13c0 -10 12 -13 28 -13c51 0 85 50 118 132l18 44l-141 351c-20 51 -33 66 -74 69v10h170v-10c-42 -2 -54 -16 -54 -31c0 -12 4 -31 13 -53l111 -281l97 254
c8 22 21 54 21 73c0 26 -20 35 -58 38v10h146v-10c-45 -2 -50 -25 -68 -69l-163 -394c-52 -126 -96 -149 -142 -149zM263 530c0 24 19 43 43 43c23 0 43 -19 43 -43s-20 -43 -43 -43c-24 0 -43 19 -43 43zM92 530c0 24 19 43 43 43c23 0 43 -19 43 -43s-20 -43 -43 -43
c-24 0 -43 19 -43 43z" />
    <glyph glyph-name="Ydieresis" unicode="&#x178;" horiz-adv-x="620" 
d="M334 296l135 239c30 53 39 82 39 99c0 28 -26 37 -63 37h-18v13h200v-13c-70 -1 -83 -37 -143 -141l-141 -247v-206c0 -54 17 -64 60 -64h44v-13h-262v13h45c42 0 60 7 60 64v196l-202 336c-21 35 -38 62 -83 62h-9v13h216v-13h-28c-27 0 -49 -6 -49 -28
c0 -7 4 -21 11 -32zM368 783c0 24 19 43 43 43c23 0 43 -19 43 -43s-20 -43 -43 -43c-24 0 -43 19 -43 43zM197 783c0 24 19 43 43 43c23 0 43 -19 43 -43s-20 -43 -43 -43c-24 0 -43 19 -43 43z" />
    <glyph glyph-name="fraction" unicode="&#x2044;" horiz-adv-x="234" 
d="M-60 -6l336 659h17l-338 -659h-15z" />
    <glyph glyph-name="fraction" unicode="&#x2215;" horiz-adv-x="234" 
d="M-60 -6l336 659h17l-338 -659h-15z" />
    <glyph glyph-name="currency" unicode="&#xa4;" horiz-adv-x="468" 
d="M147 275h179v-11h-178c2 -124 43 -262 142 -262c80 0 117 73 131 136h17c-21 -86 -59 -151 -153 -151c-91 0 -177 76 -194 277h-63v11h61c-1 16 -2 32 -2 49c0 18 1 34 2 51h-61v11h63c14 195 121 277 219 277c73 0 133 -56 133 -117c0 -37 -21 -58 -49 -58
c-25 0 -45 19 -45 45c0 23 16 40 36 44c15 3 28 -4 25 12c-5 26 -37 63 -104 63c-93 0 -152 -132 -158 -266h178v-11h-179c0 -9 -1 -33 -1 -51c0 -17 0 -33 1 -49z" />
    <glyph glyph-name="guilsinglleft" unicode="&#x2039;" horiz-adv-x="271" 
d="M229 0l-193 213l193 212h12l-143 -212l143 -213h-12z" />
    <glyph glyph-name="guilsinglright" unicode="&#x203a;" horiz-adv-x="271" 
d="M42 0h-12l143 213l-143 212h12l193 -212z" />
    <glyph glyph-name="daggerdbl" unicode="&#x2021;" horiz-adv-x="457" 
d="M265 341c-23 -34 -31 -69 -31 -148c46 0 57 6 75 12c22 7 37 12 46 12c21 0 36 -11 36 -29c0 -17 -15 -27 -36 -27c-9 0 -23 3 -46 11c-17 6 -28 12 -75 12c0 -72 6 -106 13 -125c7 -20 9 -30 9 -38c0 -15 -5 -36 -27 -36c-21 0 -26 21 -26 36c0 7 1 18 8 38
c7 21 14 54 14 125c-47 0 -59 -6 -79 -12c-17 -5 -35 -11 -44 -11c-23 0 -36 10 -36 27c0 18 12 29 36 29c9 0 29 -7 45 -12c20 -6 31 -12 78 -12c0 79 -9 113 -32 147c23 35 32 69 32 148c-47 0 -58 -6 -78 -12c-16 -5 -36 -12 -45 -12c-24 0 -36 11 -36 29
c0 17 13 27 36 27c9 0 27 -6 44 -11c20 -6 32 -12 79 -12c0 71 -7 104 -14 125c-6 20 -8 31 -8 38c0 15 5 36 26 36c22 0 27 -21 27 -36c0 -8 -2 -18 -9 -38c-7 -19 -13 -53 -13 -125c47 0 58 6 75 12c23 8 37 11 46 11c21 0 36 -10 36 -27c0 -18 -15 -29 -36 -29
c-9 0 -24 5 -46 12c-18 6 -29 12 -75 12c0 -79 8 -114 31 -147z" />
    <glyph glyph-name="periodcentered" unicode="&#xb7;" horiz-adv-x="189" 
d="M140 238c0 -27 -19 -46 -46 -46c-26 0 -45 19 -45 46c0 26 19 45 45 45c27 0 46 -19 46 -45z" />
    <glyph glyph-name="periodcentered" unicode="&#x2219;" horiz-adv-x="189" 
d="M140 238c0 -27 -19 -46 -46 -46c-26 0 -45 19 -45 46c0 26 19 45 45 45c27 0 46 -19 46 -45z" />
    <glyph glyph-name="quotesinglbase" unicode="&#x201a;" horiz-adv-x="221" 
d="M33 -167c78 64 100 120 100 147c0 30 -15 9 -38 9c-27 0 -46 17 -46 44s19 47 47 47c26 0 54 -20 53 -87c-1 -51 -34 -108 -109 -169z" />
    <glyph glyph-name="quotedblbase" unicode="&#x201e;" horiz-adv-x="364" 
d="M176 -167c78 64 100 120 100 147c0 30 -15 9 -38 9c-27 0 -46 17 -46 44s19 47 47 47c26 0 54 -20 53 -87c-1 -51 -34 -108 -109 -169zM33 -167c78 64 100 120 100 147c0 30 -15 9 -38 9c-27 0 -46 17 -46 44s19 47 47 47c26 0 54 -20 53 -87c-1 -51 -34 -108 -109 -169z
" />
    <glyph glyph-name="perthousand" unicode="&#x2030;" horiz-adv-x="888" 
d="M157 371c-61 0 -124 61 -124 143c0 79 64 142 124 142c62 0 125 -57 125 -142c0 -82 -64 -143 -125 -143zM118 -6l336 659h17l-338 -659h-15zM730 -8c-61 0 -124 61 -124 143c0 79 64 142 124 142c62 0 125 -57 125 -142c0 -82 -64 -143 -125 -143zM432 -8
c-61 0 -124 61 -124 143c0 79 64 142 124 142c62 0 125 -57 125 -142c0 -82 -64 -143 -125 -143zM157 379c50 0 74 63 74 135s-22 134 -73 134c-49 0 -75 -67 -75 -134c0 -75 25 -135 74 -135zM730 0c50 0 74 63 74 135s-22 134 -73 134c-49 0 -75 -67 -75 -134
c0 -75 25 -135 74 -135zM432 0c50 0 74 63 74 135s-22 134 -73 134c-49 0 -75 -67 -75 -134c0 -75 25 -135 74 -135z" />
    <glyph glyph-name="Acircumflex" unicode="&#xc2;" horiz-adv-x="624" 
d="M434 221h-282l-17 -52c-14 -44 -25 -76 -25 -104c0 -36 21 -52 57 -52h20v-13h-189v13c54 3 75 41 102 118l204 566h14l218 -613c21 -60 49 -70 90 -71v-13h-231v13h28c39 0 63 16 63 36c0 18 -9 48 -23 88zM430 234l-137 389l-137 -389h274zM193 693l97 146h36l98 -143
l-5 -3l-112 91l-108 -93z" />
    <glyph glyph-name="Ecircumflex" unicode="&#xca;" horiz-adv-x="580" 
d="M11 13h33c46 0 62 10 62 61v536c0 52 -16 61 -62 61h-33v13h487l10 -240h-10c-14 179 -32 227 -192 227h-82c-46 0 -65 -9 -65 -60v-249h74c97 0 112 61 113 142h10v-306h-10c-1 83 -15 151 -113 151h-74v-276c0 -50 19 -60 65 -60h94c153 0 185 78 197 248h11l-17 -261
h-498v13zM177 723l97 146h36l98 -143l-5 -3l-112 91l-108 -93z" />
    <glyph glyph-name="Aacute" unicode="&#xc1;" horiz-adv-x="624" 
d="M434 221h-282l-17 -52c-14 -44 -25 -76 -25 -104c0 -36 21 -52 57 -52h20v-13h-189v13c54 3 75 41 102 118l204 566h14l218 -613c21 -60 49 -70 90 -71v-13h-231v13h28c39 0 63 16 63 36c0 18 -9 48 -23 88zM430 234l-137 389l-137 -389h274zM267 719l-4 4l99 123
c15 19 29 33 46 34c19 1 30 -12 32 -26s-11 -30 -36 -46z" />
    <glyph glyph-name="Edieresis" unicode="&#xcb;" horiz-adv-x="580" 
d="M11 13h33c46 0 62 10 62 61v536c0 52 -16 61 -62 61h-33v13h487l10 -240h-10c-14 179 -32 227 -192 227h-82c-46 0 -65 -9 -65 -60v-249h74c97 0 112 61 113 142h10v-306h-10c-1 83 -15 151 -113 151h-74v-276c0 -50 19 -60 65 -60h94c153 0 185 78 197 248h11l-17 -261
h-498v13zM331 783c0 24 19 43 43 43c23 0 43 -19 43 -43s-20 -43 -43 -43c-24 0 -43 19 -43 43zM160 783c0 24 19 43 43 43c23 0 43 -19 43 -43s-20 -43 -43 -43c-24 0 -43 19 -43 43z" />
    <glyph glyph-name="Egrave" unicode="&#xc8;" horiz-adv-x="580" 
d="M11 13h33c46 0 62 10 62 61v536c0 52 -16 61 -62 61h-33v13h487l10 -240h-10c-14 179 -32 227 -192 227h-82c-46 0 -65 -9 -65 -60v-249h74c97 0 112 61 113 142h10v-306h-10c-1 83 -15 151 -113 151h-74v-276c0 -50 19 -60 65 -60h94c153 0 185 78 197 248h11l-17 -261
h-498v13zM344 719l-137 89c-25 16 -37 32 -36 46c1 15 13 28 32 27c17 -1 31 -16 46 -35l99 -123z" />
    <glyph glyph-name="Iacute" unicode="&#xcd;" horiz-adv-x="281" 
d="M14 13h37c46 0 62 8 62 60v538c0 51 -16 60 -62 60h-37v13h253v-13h-36c-45 0 -64 -9 -64 -60v-538c0 -51 19 -60 64 -60h36v-13h-253v13zM82 719l-4 4l99 123c15 19 29 33 46 34c19 1 30 -12 32 -26s-11 -30 -36 -46z" />
    <glyph glyph-name="Icircumflex" unicode="&#xce;" horiz-adv-x="281" 
d="M14 13h37c46 0 62 8 62 60v538c0 51 -16 60 -62 60h-37v13h253v-13h-36c-45 0 -64 -9 -64 -60v-538c0 -51 19 -60 64 -60h36v-13h-253v13zM25 723l97 146h36l98 -143l-5 -3l-112 91l-108 -93z" />
    <glyph glyph-name="Idieresis" unicode="&#xcf;" horiz-adv-x="281" 
d="M14 13h37c46 0 62 8 62 60v538c0 51 -16 60 -62 60h-37v13h253v-13h-36c-45 0 -64 -9 -64 -60v-538c0 -51 19 -60 64 -60h36v-13h-253v13zM183 783c0 24 19 43 43 43c23 0 43 -19 43 -43s-20 -43 -43 -43c-24 0 -43 19 -43 43zM12 783c0 24 19 43 43 43
c23 0 43 -19 43 -43s-20 -43 -43 -43c-24 0 -43 19 -43 43z" />
    <glyph glyph-name="Igrave" unicode="&#xcc;" horiz-adv-x="281" 
d="M14 13h37c46 0 62 8 62 60v538c0 51 -16 60 -62 60h-37v13h253v-13h-36c-45 0 -64 -9 -64 -60v-538c0 -51 19 -60 64 -60h36v-13h-253v13zM199 719l-137 89c-25 16 -37 32 -36 46c1 15 13 28 32 27c17 -1 31 -16 46 -35l99 -123z" />
    <glyph glyph-name="Oacute" unicode="&#xd3;" horiz-adv-x="607" 
d="M35 340c0 205 117 357 269 357c149 0 268 -153 268 -353s-116 -357 -270 -357c-150 0 -267 150 -267 353zM510 340c0 181 -56 348 -208 348c-151 0 -205 -163 -205 -344s56 -348 207 -348c152 0 206 163 206 344zM264 719l-4 4l99 123c15 19 29 33 46 34
c19 1 30 -12 32 -26s-11 -30 -36 -46z" />
    <glyph glyph-name="Ocircumflex" unicode="&#xd4;" horiz-adv-x="607" 
d="M35 340c0 205 117 357 269 357c149 0 268 -153 268 -353s-116 -357 -270 -357c-150 0 -267 150 -267 353zM510 340c0 181 -56 348 -208 348c-151 0 -205 -163 -205 -344s56 -348 207 -348c152 0 206 163 206 344zM188 723l97 146h36l98 -143l-5 -3l-112 91l-108 -93z" />
    <glyph glyph-name="apple" unicode="&#xf8ff;" horiz-adv-x="859" 
d="M577 693c44 0 77 -28 77 -59c0 -22 -18 -43 -43 -43s-45 18 -45 40c0 10 5 26 12 30c16 15 6 22 -5 24c-47 2 -99 -40 -99 -121c0 -86 102 -177 192 -177c83 0 124 48 123 93c-1 8 -11 21 -27 5c-5 -6 -20 -11 -31 -11c-22 0 -41 18 -41 43c0 23 22 40 44 40
c33 0 62 -31 62 -73c0 -65 -68 -125 -149 -125c-112 0 -199 84 -199 191c0 80 62 143 129 143zM282 693c67 0 129 -63 129 -143c0 -107 -87 -191 -199 -191c-81 0 -149 60 -149 125c0 42 29 73 62 73c22 0 44 -17 44 -40c0 -25 -19 -43 -41 -43c-11 0 -26 5 -31 11
c-17 16 -26 3 -27 -5c-2 -45 40 -93 123 -93c90 0 192 91 192 177c0 81 -52 123 -99 121c-11 -2 -21 -9 -5 -24c7 -4 12 -20 12 -30c0 -22 -20 -40 -45 -40s-43 21 -43 43c0 31 33 59 77 59zM577 -9c-67 0 -129 63 -129 143c0 107 87 191 199 191c81 0 149 -60 149 -125
c0 -42 -29 -73 -62 -73c-22 0 -44 17 -44 40c0 25 19 43 41 43c11 0 26 -5 31 -11c16 -16 26 -3 27 5c1 45 -40 93 -123 93c-90 0 -192 -91 -192 -177c0 -81 52 -123 99 -121c12 2 21 9 5 24c-7 4 -12 20 -12 30c0 22 20 40 45 40s43 -21 43 -43c0 -31 -33 -59 -77 -59z
M282 -9c-44 0 -77 28 -77 59c0 22 18 43 43 43s45 -18 45 -40c0 -10 -5 -26 -12 -30c-16 -15 -6 -22 5 -24c47 -2 99 40 99 121c0 86 -102 177 -192 177c-83 0 -125 -48 -123 -93c1 -8 10 -21 27 -5c5 6 20 11 31 11c22 0 41 -18 41 -43c0 -23 -22 -40 -44 -40
c-33 0 -62 31 -62 73c0 65 68 125 149 125c112 0 199 -84 199 -191c0 -80 -62 -143 -129 -143z" />
    <glyph glyph-name="Ograve" unicode="&#xd2;" horiz-adv-x="607" 
d="M35 340c0 205 117 357 269 357c149 0 268 -153 268 -353s-116 -357 -270 -357c-150 0 -267 150 -267 353zM510 340c0 181 -56 348 -208 348c-151 0 -205 -163 -205 -344s56 -348 207 -348c152 0 206 163 206 344zM358 719l-137 89c-25 16 -37 32 -36 46c1 15 13 28 32 27
c17 -1 31 -16 46 -35l99 -123z" />
    <glyph glyph-name="Uacute" unicode="&#xda;" horiz-adv-x="666" 
d="M99 221v389c0 48 -14 61 -62 61h-34v13h241v-13h-27c-47 0 -65 -11 -65 -61v-413c0 -108 54 -189 193 -189c125 0 194 91 194 201v335c0 94 -20 127 -101 127h-3v13h224v-13h-15c-68 0 -87 -35 -87 -127v-331c0 -124 -70 -223 -231 -223c-170 0 -227 94 -227 231z
M308 719l-4 4l99 123c15 19 29 33 46 34c19 1 30 -12 32 -26s-11 -30 -36 -46z" />
    <glyph glyph-name="Ucircumflex" unicode="&#xdb;" horiz-adv-x="666" 
d="M99 221v389c0 48 -14 61 -62 61h-34v13h241v-13h-27c-47 0 -65 -11 -65 -61v-413c0 -108 54 -189 193 -189c125 0 194 91 194 201v335c0 94 -20 127 -101 127h-3v13h224v-13h-15c-68 0 -87 -35 -87 -127v-331c0 -124 -70 -223 -231 -223c-170 0 -227 94 -227 231z
M235 723l97 146h36l98 -143l-5 -3l-112 91l-108 -93z" />
    <glyph glyph-name="Ugrave" unicode="&#xd9;" horiz-adv-x="666" 
d="M99 221v389c0 48 -14 61 -62 61h-34v13h241v-13h-27c-47 0 -65 -11 -65 -61v-413c0 -108 54 -189 193 -189c125 0 194 91 194 201v335c0 94 -20 127 -101 127h-3v13h224v-13h-15c-68 0 -87 -35 -87 -127v-331c0 -124 -70 -223 -231 -223c-170 0 -227 94 -227 231z
M386 719l-137 89c-25 16 -37 32 -36 46c1 15 13 28 32 27c17 -1 31 -16 46 -35l99 -123z" />
    <glyph glyph-name="dotlessi" unicode="&#x131;" horiz-adv-x="201" 
d="M18 10h10c44 0 54 8 54 55v283c0 51 -10 58 -54 58h-10v8l111 7v-356c0 -48 10 -55 54 -55h10v-10h-175v10z" />
    <glyph glyph-name="circumflex" unicode="&#x2c6;" 
d="M134 470l97 146h36l98 -143l-5 -3l-112 91l-108 -93z" />
    <glyph glyph-name="tilde" unicode="&#x2dc;" 
d="M210 557c39 -1 87 -22 118 -24c23 -1 33 7 46 41l8 -2c-16 -59 -41 -88 -91 -86c-39 1 -87 23 -118 25c-23 1 -35 -9 -47 -40l-8 2c15 60 41 85 92 84z" />
    <glyph glyph-name="macron" unicode="&#xaf;" 
d="M131 482v41h238v-41h-238z" />
    <glyph glyph-name="macron" unicode="&#x2c9;" 
d="M131 482v41h238v-41h-238z" />
    <glyph glyph-name="breve" unicode="&#x2d8;" 
d="M249 460c-82 0 -117 64 -125 132l9 3c17 -52 52 -88 116 -88c63 0 101 36 116 88l10 -3c-7 -69 -46 -132 -126 -132z" />
    <glyph glyph-name="dotaccent" unicode="&#x2d9;" 
d="M203 529c0 26 21 47 47 47c25 0 47 -21 47 -47s-22 -47 -47 -47c-26 0 -47 21 -47 47z" />
    <glyph glyph-name="ring" unicode="&#x2da;" 
d="M250 649c48 0 84 -39 84 -85c0 -47 -37 -85 -84 -85s-84 38 -84 85s37 85 84 85zM250 634c-36 0 -60 -30 -60 -70c0 -38 25 -70 60 -70c38 0 60 32 60 70c0 40 -23 70 -60 70z" />
    <glyph glyph-name="cedilla" unicode="&#xb8;" 
d="M255 -212c-42 0 -78 12 -114 38l8 12c20 -15 52 -30 86 -30c33 0 60 20 60 56c0 34 -18 59 -48 59c-7 0 -17 -1 -23 -3v80h15v-67c3 1 14 4 31 4c42 0 75 -25 75 -68c0 -56 -39 -81 -90 -81z" />
    <glyph glyph-name="hungarumlaut" unicode="&#x2dd;" 
d="M314 461l-3 4l93 116c14 17 27 32 43 32c18 0 28 -12 30 -25s-11 -28 -34 -43zM177 461l-3 4l93 116c14 17 27 32 43 32c18 0 28 -12 30 -25s-11 -28 -34 -43z" />
    <glyph glyph-name="ogonek" unicode="&#x2db;" 
d="M158 -144c0 62 62 110 115 144h9c-46 -38 -73 -78 -73 -121s24 -68 63 -68c23 0 42 9 61 24l5 -6c-34 -32 -63 -46 -104 -46c-44 0 -76 23 -76 73z" />
    <glyph glyph-name="caron" unicode="&#x2c7;" 
d="M134 605l6 2l108 -103l112 101l5 -3l-98 -143h-36z" />
    <glyph glyph-name="Euro" unicode="&#x20ac;" horiz-adv-x="468" 
d="M147 275h179v-11h-178c2 -124 43 -262 142 -262c80 0 117 73 131 136h17c-21 -86 -59 -151 -153 -151c-91 0 -177 76 -194 277h-63v11h61c-1 16 -2 32 -2 49c0 18 1 34 2 51h-61v11h63c14 195 121 277 219 277c73 0 133 -56 133 -117c0 -37 -21 -58 -49 -58
c-25 0 -45 19 -45 45c0 23 16 40 36 44c15 3 28 -4 25 12c-5 26 -37 63 -104 63c-93 0 -152 -132 -158 -266h178v-11h-179c0 -9 -1 -33 -1 -51c0 -17 0 -33 1 -49z" />
    <glyph glyph-name="R.alt" horiz-adv-x="599" 
d="M10 13h36c46 0 60 16 60 61v536c0 48 -17 61 -63 61h-32v13h260c140 0 236 -60 236 -173c0 -108 -98 -175 -195 -184v-3c58 -15 114 -82 155 -188c33 -87 45 -123 99 -123h27v-13h-138l-42 121c-49 141 -92 205 -212 205h-42v-252c0 -45 16 -61 62 -61h42v-13h-253v13z
M159 339h131c129 0 156 102 156 173c0 58 -12 159 -182 159h-40c-46 0 -65 -10 -65 -58v-274z" />
    </font>
</defs>
</svg>
